<?xml version="1.0" encoding="UTF-8" standalone="no"?>
<svg
   xmlns:svg="http://www.w3.org/2000/svg"
   xmlns="http://www.w3.org/2000/svg"
   width="800.0"
   height="240.0"

>
    <g transform="scale(1.7778444338211283, -1.7778444338211283)   translate(149.3005589714004,-61.891265195805914)" stroke-width="0.5624789104020175"  fill="none">
       <!-- hidden lines -->
       <g  stroke="rgb(160,160,160)" fill="none" stroke-dasharray="0.5624789104020175,0.5624789104020175" >
			<path d="M28.433732985526277,-39.34424698771907 L28.433732985526277,48.77601532625953 " />
			<path d="M-34.80477689099689,-45.80247437868861 L26.546016272794247,-41.43680337763478 " />
			<path d="M-28.212295490447964,-42.946038185971865 L-28.213604596188173,-43.02765656116747 L-28.217530460853695,-43.109370684132436 L-28.22406872839095,-43.19108988666282 L-28.233212144081257,-43.27272349491852 L-28.244950562590507,-43.35418093003295 L-28.259270959226217,-43.435371808617404 L-28.276157444389437,-43.51620604304846 L-28.295591281205496,-43.596593941427265 L-28.31755090631404,-43.676446307099674 L-28.342011953795254,-43.75567453762692 L-28.368947282205763,-43.834190723096974 L-28.398327004694178,-43.91190774366739 L-28.43011852216289,-43.98873936623165 L-28.46428655943933,-44.064600340101485 L-28.500793204416507,-44.13940649159921 L-28.53959795011948,-44.21307481745495 L-28.580657739650984,-44.285523576905305 L-28.623927013966448,-44.356672382391075 L-28.669357762425282,-44.42644228875356 L-28.71689957606247,-44.494755880830375 L-28.766499703521234,-44.561537359353615 L-28.818103109584786,-44.62671262505506 L-28.87165253624221,-44.690209360885135 L-28.927088566220693,-44.751957112254296 L-28.98434968891363,-44.811887365207895 L-29.043372368631452,-44.8699336224478 L-29.104091115099436,-44.92603147711633 L-29.16643855612429,-44.98011868426067 L-29.230345512348848,-45.03213522989853 L-29.29574107401198,-45.08202339760836 L-29.36255267962852,-45.12972783257022 L-29.4307061965019,-45.17519560298626 L-29.50012600298016,-45.2183762588127 L-29.570735072364084,-45.25922188773809 L-29.642455058374342,-45.2976871683458 L-29.71520638208282,-45.3337294204016 L-29.788908320211632,-45.36730865221078 L-29.863479094701926,-45.39838760499202 L-29.938835963453027,-45.42693179421894 L-30.014895312131248,-45.45290954788338 L-30.091572746946547,-45.47629204163793 L-30.168783188294015,-45.49705333077887 L-30.24644096515635,-45.515170379033755 L-30.324459910162545,-45.53062308412202 L-30.40275345519732,-45.543394300060015 L-30.481234727455213,-45.55346985618582 L-30.559816645832733,-45.56083857288269 L-30.638412017551655,-45.56549227398369 L-30.716933634906226,-45.56742579584388 L-30.795294372026916,-45.566636993069665 L-30.873407281553398,-45.56312674089935 L-30.951185691109405,-45.556898934231995 L-31.028543299472535,-45.54796048330569 L-31.10539427233219,-45.5363213060301 L-31.181653337529436,-45.52199431698183 L-31.25723587967315,-45.50499541307462 L-31.332058034027387,-45.485343455920514 L-31.406036779565866,-45.463060250901435 L-31.479090031090287,-45.438170522974374 L-31.551136730310272,-45.410701889237174 L-31.62209693578386,-45.38068482828514 L-31.6918919116188,-45.348152646392705 L-31.760444214836163,-45.313141440557494 L-31.82767778129938,-45.27569005844788 " />
			<path d="M-31.827677781299386,-45.27569005844787 L-31.924190749309115,-45.216143970847256 L-32.01744603014841,-45.1515335104896 L-32.107218963677525,-45.08201432963311 L-32.19329327903641,-45.00775390607363 L-32.27546161566015,-44.92893113967597 L-32.35352602282871,-44.845735921388425 L-32.4272984365476,-44.7583686757789 L-32.496601132610465,-44.66703987819453 L-32.56126715475229,-44.57196954770816 L-32.62114071686166,-44.473386717073105 L-32.676077578283156,-44.371528880963204 L-32.7259453913057,-44.26664142382734 L-32.77062401999983,-44.15897702873679 L-32.81000582963563,-44.048795068649646 L-32.84399594598424,-43.936360981558536 L-32.87251248387821,-43.82194563102733 L-32.89548674447998,-43.70582465365707 L-32.91286338078348,-43.588277795053216 L-32.92460053094981,-43.46958823589405 L-32.93066991915619,-43.35004190972356 L-32.931056923714806,-43.22992681411251 L-32.92576061229778,-43.109532316847066 L-32.914793744183214,-42.98914845881646 L-32.89818273951699,-42.86906525527906 L-32.87596761566429,-42.74957199719024 L-32.84820189080429,-42.6309565542751 L-32.81495245500018,-42.51350468152512 L-32.776299409055106,-42.39749933078932 L-32.73233587154237,-42.283219969118484 L-32.683167754474574,-42.17094190550458 L-32.62891350815237,-42.06093562763724 L-32.569703835807246,-41.95346615027527 L-32.505681378726045,-41.848792376802834 L-32.43700037261557,-41.74716647550857 L-32.363826276035304,-41.64883327209009 L-32.286335371793186,-41.55402965984737 L-32.20471434226494,-41.46298402898615 L-32.11915981965987,-41.375915716405814 L-32.02987791231661,-41.29303447729766 L-31.937083708170118,-41.21453997982623 L-31.841000756586006,-41.14062132411124 L-31.74186052981051,-41.071456586668816 L-31.639901865333588,-41.00721239140958 L-31.53537039050849,-40.94804350822703 L-31.42851793081395,-40.89409248014334 L-31.319601903184534,-40.84548927991071 L-31.208884695870722,-40.80235099689565 L-31.096633036322615,-40.7647815550004 L-30.983117348620148,-40.732871462301176 L-30.868611101997804,-40.70669759300629 L-30.753390152033248,-40.68632300225944 L-30.63773207608711,-40.67179677423434 L-30.5219155045948,-40.66315390388663 L-30.406219449821375,-40.660415212648026 L-30.29092263369656,-40.66358729826558 L-30.17630281634921,-40.672662518907224 L-30.06263612695882,-40.68761901157152 L-29.950196398536164,-40.70842074475761 L-29.839254508235566,-40.73501760526823 L-29.73007772478812,-40.7673455189368 L-29.62292906462791,-40.805326604987705 L-29.51806665826238,-40.8488693636579 L-29.415743128413325,-40.89786889662784 L-29.316204981426647,-40.952207159730754 " />
			<path d="M-29.31620498142663,-40.95220715973077 L-29.25380894872051,-40.98989138283281 L-29.192724965038455,-41.02968986027056 L-29.133013832451013,-41.071562977243424 L-29.0747349865136,-41.11546905388609 L-29.017946437105223,-41.16136438675603 L-28.96270471068634,-41.209203292335246 L-28.909064794033263,-41.25893815250298 L-28.857080079505188,-41.31051946193401 L-28.80680231189821,-41.36389587737554 L-28.758281536939364,-41.419014268753514 L-28.711566051471866,-41.47581977205743 L-28.666702355381155,-41.53425584395117 L-28.623735105309624,-41.594264318055416 L-28.582707070206077,-41.655785462845515 L-28.54365908875415,-41.718758041107364 L-28.50663002872213,-41.78311937089203 L-28.471656748274548,-41.84880538790836 L-28.438774059284125,-41.915750709291636 L-28.408014692680574,-41.98388869868469 L-28.37940926587071,-42.0531515325667 L-28.35298625226236,-42.123470267763715 L-28.32877195292238,-42.19477491007363 L-28.306790470396926,-42.26699448393737 L-28.2870636847202,-42.34005710308684 L-28.269611231635352,-42.41389004209951 L-28.25445048304939,-42.48841980878811 L-28.241596529741425,-42.56357221735367 L-28.23106216634156,-42.63927246222897 L-28.22285787859528,-42.71544519253882 L-28.216991832926137,-42.79201458710321 L-28.213469868306984,-42.868904429908525 L-28.212295490447964,-42.94603818597186 " />
			<path d="M29.363064247879098,-38.84902386190597 L29.36175514213889,-38.93064223710157 L29.357829277473368,-39.01235636006654 L29.351291009936112,-39.09407556259693 L29.34214759424581,-39.17570917085263 L29.330409175736555,-39.25716660596706 L29.316088779100845,-39.33835748455151 L29.299202293937626,-39.41919171898257 L29.279768457121566,-39.49957961736137 L29.257808832013023,-39.57943198303378 L29.23334778453181,-39.65866021356103 L29.2064124561213,-39.73717639903108 L29.177032733632885,-39.814893419601496 L29.145241216164173,-39.89172504216575 L29.111073178887736,-39.96758601603559 L29.074566533910556,-40.042392167533315 L29.035761788207584,-40.11606049338906 L28.994701998676078,-40.18850925283941 L28.951432724360615,-40.25965805832518 L28.90600197590178,-40.32942796468767 L28.858460162264592,-40.39774155676448 L28.80886003480583,-40.46452303528772 L28.757256628742276,-40.52969830098917 L28.703707202084853,-40.59319503681924 L28.64827117210637,-40.6549427881884 L28.591010049413434,-40.714873041142 L28.53198736969561,-40.77291929838191 L28.471268623227623,-40.82901715305044 L28.40892118220277,-40.88310436019477 L28.345014225978215,-40.93512090583263 L28.27961866431508,-40.985009073542464 L28.21280705869854,-41.03271350850432 L28.14465354182516,-41.07818127892036 L28.075233735346902,-41.1213619347468 L28.00462466596298,-41.1622075636722 L27.93290467995272,-41.20067284427991 L27.860153356244243,-41.23671509633571 L27.78645141811543,-41.270294328144885 L27.711880643625136,-41.30137328092612 L27.636523774874036,-41.32991747015304 L27.560464426195814,-41.355895223817484 L27.483786991380516,-41.37927771757204 L27.406576550033048,-41.40003900671297 L27.328918773170713,-41.41815605496786 L27.250899828164517,-41.433608760056124 L27.172606283129742,-41.44637997599412 L27.09412501087185,-41.456455532119925 L27.01554309249433,-41.46382424881679 L26.936947720775407,-41.4684779499178 L26.858426103420836,-41.470411471777986 L26.780065366300146,-41.46962266900377 L26.701952456773665,-41.466112416833454 L26.624174047217657,-41.4598846101661 L26.546816438854528,-41.45094615923979 L26.46996546599487,-41.43930698196421 L26.393706400797626,-41.42497999291594 L26.318123858653912,-41.40798108900872 L26.243301704299675,-41.38832913185462 L26.169322958761196,-41.36604592683554 L26.096269707236775,-41.34115619890848 L26.02422300801679,-41.31368756517128 L25.953262802543204,-41.283670504219245 L25.883467826708262,-41.25113832232681 L25.8149155234909,-41.2161271164916 L25.747681957027684,-41.17867573438198 " />
			<path d="M25.747681957027677,-41.178675734381976 L25.651168989017947,-41.11912964678136 L25.557913708178653,-41.054519186423704 L25.468140774649537,-40.985000005567215 L25.38206645929065,-40.910739582007736 L25.299898122666917,-40.83191681561007 L25.221833715498352,-40.74872159732253 L25.148061301779464,-40.661354351713 L25.078758605716597,-40.570025554128634 L25.014092583574772,-40.47495522364226 L24.954219021465402,-40.37637239300721 L24.89928216004391,-40.27451455689731 L24.849414347021362,-40.16962709976144 L24.804735718327233,-40.0619627046709 L24.765353908691438,-39.95178074458375 L24.731363792342822,-39.83934665749264 L24.702847254448855,-39.72493130696144 L24.679872993847077,-39.60881032959117 L24.662496357543585,-39.49126347098732 L24.65075920737725,-39.372573911828155 L24.64468981917087,-39.25302758565766 L24.644302814612256,-39.132912490046614 L24.649599126029283,-39.01251799278117 L24.660565994143845,-38.89213413475056 L24.677176998810076,-38.772050931213165 L24.699392122662776,-38.65255767312434 L24.72715784752277,-38.533942230209206 L24.76040728332688,-38.416490357459224 L24.799060329271953,-38.30048500672343 L24.843023866784694,-38.18620564505259 L24.892191983852484,-38.07392758143868 L24.946446230174693,-37.96392130357135 L25.005655902519816,-37.85645182620937 L25.069678359601017,-37.75177805273694 L25.138359365711487,-37.650152151442676 L25.211533462291758,-37.55181894802419 L25.289024366533877,-37.45701533578148 L25.37064539606212,-37.36596970492025 L25.456199918667195,-37.27890139233992 L25.54548182601046,-37.196020153231764 L25.638276030156945,-37.11752565576033 L25.734358981741057,-37.04360700004534 L25.833499208516553,-36.97444226260292 L25.935457872993474,-36.910198067343686 L26.039989347818572,-36.851029184161135 L26.146841807513113,-36.79707815607745 L26.25575783514253,-36.74847495584481 L26.36647504245634,-36.70533667282975 L26.478726702004447,-36.6677672309345 L26.592242389706914,-36.63585713823528 L26.70674863632926,-36.609683268940394 L26.821969586293815,-36.58930867819355 L26.93762766223995,-36.57478245016844 L27.05344423373226,-36.566139579820735 L27.169140288505687,-36.56340088858213 L27.284437104630502,-36.56657297419969 L27.399056921977852,-36.57564819484133 L27.51272361136824,-36.590604687505625 L27.625163339790898,-36.611406420691715 L27.736105230091496,-36.63800328120234 L27.84528201353894,-36.670331194870904 L27.95243067369915,-36.70831228092181 L28.05729308006468,-36.751855039592 L28.159616609913737,-36.800854572561946 L28.259154756900415,-36.85519283566486 " />
			<path d="M28.259154756900433,-36.85519283566487 L28.32155078960655,-36.89287705876691 L28.382634773288608,-36.93267553620466 L28.44234590587605,-36.97454865317753 L28.50062475181346,-37.01845472982019 L28.55741330122184,-37.06435006269013 L28.612655027640724,-37.11218896826935 L28.666294944293796,-37.16192382843708 L28.718279658821874,-37.21350513786811 L28.768557426428853,-37.266881553309645 L28.817078201387698,-37.32199994468762 L28.863793686855196,-37.37880544799153 L28.908657382945908,-37.437241519885276 L28.95162463301744,-37.49724999398952 L28.992652668120986,-37.55877113877962 L29.03170064957291,-37.62174371704147 L29.06872970960493,-37.686105046826135 L29.103702990052515,-37.75179106384246 L29.136585679042938,-37.81873638522574 L29.167345045646492,-37.88687437461879 L29.195950472456353,-37.956137208500806 L29.222373486064697,-38.02645594369782 L29.24658778540468,-38.09776058600774 L29.268569267930133,-38.16998015987147 L29.288296053606864,-38.243042779020946 L29.30574850669171,-38.316875718033614 L29.320909255277673,-38.39140548472221 L29.333763208585637,-38.46655789328778 L29.344297571985503,-38.54225813816308 L29.35250185973178,-38.61843086847293 L29.358367905400925,-38.695000263037315 L29.36188987002008,-38.77189010584263 L29.363064247879098,-38.84902386190596 " />
			<path d="M-29.64743892151608,-43.47725448160504 L-22.819482738616717,-42.99138284463095 " />
			<path d="M-21.38867810510316,-48.27469525724233 L-29.64743892151607,-43.47725448160504 " />
			<path d="M34.80477708920715,38.49426768283746 L26.54601627279424,43.29170845847475 " />
			<path d="M26.54601627279424,40.82667262646919 L26.54601627279424,43.291708458474844 " />
			<path d="M-34.80477689099696,-38.494267797976136 L-34.69287730821497,-38.42188480754235 L-34.57893727630145,-38.35332782929792 L-34.463087714614744,-38.28867563657167 L-34.34546173660078,-38.22800251601637 L-34.226194496843135,-38.17137818225186 L-34.105423035767686,-38.118867697761615 L-33.98328612218048,-38.07053139813463 L-33.85992409381958,-38.02642482273862 L-33.735478696104266,-37.98659865090421 L-33.6100929192667,-37.951098643693385 L-33.48391083405331,-37.91996559131908 L-33.35707742618468,-37.89323526627644 L-33.22973842976404,-37.87093838223955 L-33.102040159825904,-37.853100558770734 L-32.974129344217175,-37.83974229188323 L-32.846152955003966,-37.830878930490854 L-32.71825803959776,-37.826520658771784 L-32.59059155179502,-37.82667248446673 L-32.463300182924364,-37.83133423312495 L-32.33653019329529,-37.8405005483047 L-32.210427244142224,-37.85416089772791 L-32.085136230256815,-37.87229958538192 L-31.960801113501002,-37.89489576955458 L-31.83756475739194,-37.92192348678174 L-31.715568762948983,-37.95335168167984 L-31.594953305991314,-37.98914424262909 L-31.47585697607314,-38.02926004326649 L-31.35841661724155,-38.073652989740836 L-31.24276717079998,-38.12227207367545 L-31.12904152025799,-38.1750614307778 L-31.01737033864545,-38.23196040502876 L-30.907881938366693,-38.29290361837745 " />
			<path d="M-30.907881938366664,-38.292903618377466 L-30.83188997722675,-38.338374071231314 L-30.757094691490774,-38.385803419882166 L-30.683539006037826,-38.43516444471268 L-30.61126513434265,-38.48642881752007 L-30.540314554249377,-38.539567117773565 L-30.470727984167496,-38.59454884949884 L-30.40254535970362,-38.65134245877958 L-30.335805810742503,-38.70991535186623 L-30.27054763899049,-38.77023391388147 L-30.20680829599422,-38.83226352811174 L-30.144624361647267,-38.89596859587371 L-30.084031523196987,-38.96131255694432 L-30.025064554763688,-39.028257910542585 L-29.967757297383812,-39.09676623685125 L-29.91214263958864,-39.166798219065875 L-29.85825249852961,-39.238313665958614 L-29.806117801661124,-39.311271534943955 L-29.75576846899135,-39.38562995563296 L-29.707233395911157,-39.46134625386257 L-29.660540436611143,-39.53837697618631 L-29.61571638809612,-39.61667791481208 L-29.5727869748064,-39.69620413297291 L-29.53177683385456,-39.77690999071618 L-29.49270950088626,-39.85874917109619 L-29.455607396573168,-39.941674706755485 L-29.420491813745794,-40.025639006879246 L-29.38738290517356,-40.11059388450762 L-29.356299671999157,-40.196490584190116 L-29.327259952833845,-40.283279809966274 L-29.30028041351989,-40.370911753656515 L-29.27537653756606,-40.45933612344698 L-29.252562617261688,-40.54850217275192 L-29.23185174547434,-40.63835872933702 L-29.21325580813585,-40.728854224687126 L-29.196785477420992,-40.81993672360126 L-29.182450205622747,-40.911553953998165 L-29.170258219727657,-41.00365333691516 L-29.16021651669435,-41.09618201668309 L-29.15233085943803,-41.18908689126014 L-29.146605773523117,-41.28231464270695 L-29.143044544566056,-41.37581176778573 L-29.141649216349695,-41.46952460866563 L-29.142420589650374,-41.563399383716906 L-29.145358221778356,-41.65738221837608 L-29.150460426831874,-41.751419176064466 L-29.157724276664684,-41.84545628914226 L-29.16714560256652,-41.93943958988049 L-29.1787189976555,-42.03331514143299 L-29.19243781998113,-42.12702906879065 L-29.208294196336112,-42.22052758970019 L-29.226279026774755,-42.313757045529705 L-29.246381989835427,-42.40666393206325 L-29.268591548464016,-42.499194930206826 L-29.292894956635028,-42.59129693658808 L-29.319278266666505,-42.682917094032284 L-29.34772633722458,-42.77400282189691 L-29.378222842013052,-42.86450184624761 L-29.410750279143027,-42.95436222985815 L-29.44528998117721,-43.04353240201701 L-29.481822125843138,-43.13196118812381 L-29.5203257474091,-43.21959783905827 L-29.560778748716388,-43.30639206030504 L-29.60315791386077,-43.39229404081768 L-29.64743892151608,-43.477254481605044 " />
			<path d="M-26.54601607458398,-43.291708573613334 L-34.80477689099689,-38.49426779797604 " />
			<path d="M26.546016272794333,43.291708458474815 L26.434116690012335,43.21932546804103 L26.320176658098816,43.15076848979659 L26.204327096412108,43.08611629707035 L26.086701118398146,43.02544317651504 L25.9674338786405,42.96881884275054 L25.846662417565053,42.916308358260295 L25.72452550397784,42.867972058633306 L25.60116347561694,42.82386548323729 L25.476718077901623,42.78403931140289 L25.35133230106405,42.74853930419206 L25.225150215850665,42.71740625181775 L25.098316807982037,42.69067592677512 L24.970977811561394,42.66837904273822 L24.84327954162325,42.65054121926941 L24.71536872601452,42.637182952381906 L24.58739233680131,42.628319590989534 L24.459497421395106,42.623961319270464 L24.33183093359237,42.624113144965406 L24.20453956472171,42.62877489362363 L24.077769575092635,42.63794120880338 L23.951666625939563,42.65160155822659 L23.826375612054157,42.669740245880604 L23.702040495298345,42.69233643005326 L23.57880413918928,42.71936414728043 L23.456808144746322,42.75079234217853 L23.33619268778865,42.78658490312778 L23.217096357870474,42.826700703765184 L23.099655999038884,42.87109365023953 L22.984006552597315,42.919712734174134 L22.870280902055324,42.972502091276496 L22.758609720442784,43.02940106552745 L22.649121320164014,43.09034427887616 " />
			<path d="M22.649121320164,43.09034427887617 L22.573129359024083,43.135814731730015 L22.498334073288106,43.18324408038087 L22.424778387835158,43.23260510521139 L22.352504516139977,43.28386947801878 L22.281553936046706,43.33700777827227 L22.211967365964824,43.39198950999755 L22.143784741500944,43.448783119278296 L22.077045192539828,43.507356012364944 L22.011787020787814,43.567674574380185 L21.948047677791543,43.629704188610454 L21.885863743444588,43.69340925637243 L21.82527090499431,43.758753217443044 L21.76630393656101,43.82569857104131 L21.708996679181134,43.89420689734998 L21.65338202138596,43.964238879564604 L21.599491880326926,44.03575432645735 L21.54735718345844,44.10871219544269 L21.497007850788663,44.183070616131694 L21.448472777708474,44.258786914361316 L21.401779818408457,44.335817636685064 L21.35695576989344,44.41411857531082 L21.31402635660372,44.49364479347166 L21.27301621565188,44.57435065121493 L21.233948882683578,44.65618983159495 L21.19684677837049,44.73911536725424 L21.161731195543112,44.82307966737801 L21.128622286970877,44.90803454500639 L21.097539053796478,44.99393124468889 L21.06849933463117,45.08072047046504 L21.04151979531721,45.16835241415529 L21.01661591936338,45.25677678394576 L20.993801999059013,45.345942833250696 L20.97309112727167,45.4357993898358 L20.954495189933176,45.52629488518591 L20.93802485921832,45.617377384100045 L20.92368958742008,45.70899461449696 L20.91149760152499,45.80109399741395 L20.901455898491687,45.89362267718189 L20.89357024123537,45.98652755175894 L20.887845155320456,46.07975530320575 L20.884283926363395,46.173252428284535 L20.882888598147037,46.26696526916444 L20.88365997144772,46.36084004421571 L20.8865976035757,46.45482287887489 L20.891699808629223,46.54885983656328 L20.898963658462037,46.64289694964108 L20.908384984363877,46.736880250379315 L20.91995837945286,46.830755801931815 L20.933677201778494,46.92446972928948 L20.949533578133476,47.01796825019901 L20.967518408572122,47.11119770602853 L20.987621371632795,47.20410459256208 L21.009830930261387,47.296635590705655 L21.034134338432402,47.388737597086916 L21.060517648463886,47.48035775453111 L21.088965719021964,47.57144348239574 L21.119462223810437,47.661942506746456 L21.151989660940416,47.751802890356984 L21.186529362974607,47.84097306251584 L21.223061507640534,47.929401848622646 L21.261565129206502,48.01703849955711 L21.302018130513794,48.10383272080389 L21.34439729565818,48.189734701316524 L21.388678303313483,48.274695142103866 " />
			<path d="M29.64743911972633,43.477254366466454 L21.38867830331342,48.274695142103745 " />
			<path d="M-26.54601607458398,34.128596681783634 L-34.80477689099689,38.926037457420925 " />
			<path d="M-34.80477689099689,-38.494267797976136 L-34.80477689099689,38.92603745742102 " />
			<path d="M-29.64743892151608,44.64300783237356 L21.388678303313554,48.27469514210376 " />
			<path d="M-21.38867810510316,39.84556705673627 L-29.64743892151607,44.64300783237356 " />
			<path d="M-23.21891556660403,44.77734853573386 L-27.938207348434116,44.44152768949895 " />
			<path d="M-27.938207348434116,44.44152768949895 L-27.277506498977903,44.05773243665905 " />
			<path d="M-27.277506498977903,44.05773243665905 L-22.558214717147816,44.39355328289396 " />
			<path d="M-22.558214717147816,44.39355328289396 L-23.21891556660403,44.77734853573386 " />
			<path d="M-29.64743892151608,44.64300783237357 L-29.57297639303889,44.507963609002346 L-29.50410878474498,44.36947978827403 L-29.440951317662403,44.227788064719434 L-29.383609659295328,44.083125499947926 L-29.332179746833827,43.935734126024286 L-29.286747626643287,43.78586054052975 L-29.247389310301926,43.633755493984395 L-29.214170647427352,43.479673470321536 L-29.187147215504847,43.323872261115596 L-29.166364226901806,43.166612534276226 L-29.151856453223804,43.00815739792996 L-29.143648167138927,42.84877196021925 L-29.14175310176765,42.68872288575528 L-29.146174427706214,42.52827794946672 L-29.15690474772198,42.36770558859079 L-29.173926109129585,42.20727445355625 L-29.197210033827215,42.04725295850973 L-29.226717565942774,41.88790883223731 L-29.262399337010162,41.72950867023284 L-29.304195648566672,41.57231748866228 L-29.35203657203332,41.41659828097044 L-29.40584206571095,41.26261157787186 L-29.465522108696415,41.11061501146204 L-29.53097685149476,40.960862884178304 L-29.60209678307543,40.813605743331436 L-29.67876291409301,40.66908996191995 L-29.76084697596592,40.52755732642834 L-29.84821163548004,40.38924463229885 L-29.940710724558198,40.2543832877538 L-30.038189484811046,40.123198926631034 L-30.140484826460277,39.99591103088044 L-30.247425601200884,39.87273256335307 L-30.35883288854599,39.75386961149719 L-30.474520295175157,39.63952104255749 L-30.59429426678537,39.52987817085424 L-30.717954411922864,39.42512443769909 L-30.845293837254133,39.32543510448308 L-30.976099493715004,39.23097695945023 L-31.11015253295885,39.14190803864753 L-31.247228673507365,39.05837736151785 L-31.387098575991487,38.98052468157859 L-31.52952822685453,38.90848025260277 L-31.67427932987562,38.84236461069405 L-31.821109704858365,38.78228837262014 L-31.969773692817746,38.728352050742146 L-32.120022566987274,38.68064588484928 L-32.27160494895881,38.63924969118047 L-32.42426722925879,38.60423272888541 L-32.577753991657204,38.575653584148455 L-32.73180844049941,38.553560072169205 L-32.886172830345835,38.537989157163885 L-33.04058889720079,38.52896689052122 L-33.194798290608794,38.5265083672164 L-33.34854300589561,38.53061770055594 L-33.50156581583073,38.541288015295834 L-33.65361070098917,38.55850145914434 L-33.80442327809248,38.58222923263034 L-33.95375122561232,38.61243163728714 L-34.10134470592465,38.649058142071176 L-34.24695678330808,38.69204746790454 L-34.3903438370871,38.741327690199725 L-34.53126596922903,38.7968163591953 L-34.66948740571264,38.858420637900906 L-34.80477689099695,38.926037457421 " />
			<path d="M-28.212295490447964,41.25776802516324 L-28.213604596188173,41.176149649967634 L-28.217530460853695,41.094435527002666 L-28.22406872839095,41.01271632447228 L-28.233212144081257,40.93108271621658 L-28.244950562590507,40.84962528110215 L-28.259270959226217,40.7684344025177 L-28.276157444389437,40.68760016808664 L-28.295591281205496,40.60721226970784 L-28.31755090631404,40.52735990403543 L-28.342011953795254,40.44813167350818 L-28.368947282205763,40.36961548803813 L-28.398327004694178,40.29189846746771 L-28.43011852216289,40.215066844903454 L-28.46428655943933,40.13920587103362 L-28.500793204416507,40.06439971953589 L-28.53959795011948,39.99073139368015 L-28.580657739650984,39.9182826342298 L-28.623927013966448,39.84713382874403 L-28.669357762425282,39.77736392238154 L-28.71689957606247,39.70905033030473 L-28.766499703521234,39.64226885178149 L-28.818103109584786,39.57709358608004 L-28.87165253624221,39.51359685024997 L-28.927088566220693,39.45184909888081 L-28.98434968891363,39.39191884592721 L-29.043372368631452,39.3338725886873 L-29.104091115099436,39.27777473401877 L-29.16643855612429,39.223687526874436 L-29.230345512348848,39.17167098123657 L-29.29574107401198,39.12178281352674 L-29.36255267962852,39.074078378564884 L-29.4307061965019,39.028610608148846 L-29.50012600298016,38.985429952322406 L-29.570735072364084,38.94458432339701 L-29.642455058374342,38.9061190427893 L-29.71520638208282,38.8700767907335 L-29.788908320211632,38.83649755892432 L-29.863479094701926,38.805418606143085 L-29.938835963453027,38.776874416916165 L-30.014895312131248,38.75089666325172 L-30.091572746946547,38.72751416949717 L-30.168783188294015,38.706752880356234 L-30.24644096515635,38.68863583210135 L-30.324459910162545,38.67318312701308 L-30.40275345519732,38.66041191107509 L-30.481234727455213,38.65033635494928 L-30.559816645832733,38.642967638252415 L-30.638412017551655,38.63831393715141 L-30.716933634906226,38.63638041529122 L-30.795294372026916,38.63716921806544 L-30.873407281553398,38.64067947023575 L-30.951185691109405,38.64690727690311 L-31.028543299472535,38.655845727829416 L-31.10539427233219,38.667484905105 L-31.181653337529436,38.68181189415327 L-31.25723587967315,38.698810798060485 L-31.332058034027387,38.71846275521459 L-31.406036779565866,38.74074596023367 L-31.479090031090287,38.76563568816073 L-31.551136730310272,38.79310432189793 L-31.62209693578386,38.82312138284996 L-31.6918919116188,38.8556535647424 L-31.760444214836163,38.89066477057761 L-31.82767778129938,38.928116152687224 " />
			<path d="M-31.827677781299386,38.92811615268723 L-31.924190749309115,38.98766224028785 L-32.01744603014841,39.0522727006455 L-32.107218963677525,39.12179188150199 L-32.19329327903641,39.19605230506147 L-32.27546161566015,39.274875071459135 L-32.35352602282871,39.35807028974668 L-32.4272984365476,39.445437535356206 L-32.496601132610465,39.53676633294057 L-32.56126715475229,39.631836663426945 L-32.62114071686166,39.730419494062 L-32.676077578283156,39.8322773301719 L-32.7259453913057,39.937164787307765 L-32.77062401999983,40.04482918239831 L-32.81000582963563,40.155011142485456 L-32.84399594598424,40.267445229576566 L-32.87251248387821,40.38186058010777 L-32.89548674447998,40.497981557478035 L-32.91286338078348,40.61552841608189 L-32.92460053094981,40.73421797524105 L-32.93066991915619,40.853764301411545 L-32.931056923714806,40.97387939702259 L-32.92576061229778,41.09427389428804 L-32.914793744183214,41.214657752318644 L-32.89818273951699,41.33474095585604 L-32.87596761566429,41.454234213944865 L-32.84820189080429,41.57284965686 L-32.81495245500018,41.69030152960998 L-32.776299409055106,41.80630688034578 L-32.73233587154237,41.92058624201662 L-32.683167754474574,42.032864305630525 L-32.62891350815237,42.14287058349786 L-32.569703835807246,42.250340060859834 L-32.505681378726045,42.35501383433227 L-32.43700037261557,42.45663973562653 L-32.363826276035304,42.554972939045015 L-32.286335371793186,42.64977655128773 L-32.20471434226494,42.74082218214895 L-32.11915981965987,42.82789049472929 L-32.02987791231661,42.91077173383744 L-31.937083708170118,42.989266231308875 L-31.841000756586006,43.063184887023866 L-31.74186052981051,43.132349624466286 L-31.639901865333588,43.19659381972552 L-31.53537039050849,43.25576270290807 L-31.42851793081395,43.30971373099176 L-31.319601903184534,43.358316931224394 L-31.208884695870722,43.401455214239455 L-31.096633036322615,43.439024656134706 L-30.983117348620148,43.470934748833926 L-30.868611101997804,43.49710861812881 L-30.753390152033248,43.51748320887566 L-30.63773207608711,43.532009436900765 L-30.5219155045948,43.54065230724847 L-30.406219449821375,43.54339099848708 L-30.29092263369656,43.54021891286952 L-30.17630281634921,43.53114369222788 L-30.06263612695882,43.51618719956358 L-29.950196398536164,43.49538546637749 L-29.839254508235566,43.46878860586687 L-29.73007772478812,43.4364606921983 L-29.62292906462791,43.3984796061474 L-29.51806665826238,43.354936847477205 L-29.415743128413325,43.30593731450726 L-29.316204981426647,43.25159905140435 " />
			<path d="M-29.31620498142663,43.251599051404334 L-29.25380894872051,43.21391482830229 L-29.192724965038455,43.174116350864544 L-29.133013832451013,43.13224323389168 L-29.0747349865136,43.088337157249015 L-29.017946437105223,43.042441824379075 L-28.96270471068634,42.994602918799856 L-28.909064794033263,42.944868058632125 L-28.857080079505188,42.893286749201096 L-28.80680231189821,42.83991033375956 L-28.758281536939364,42.78479194238159 L-28.711566051471866,42.727986439077675 L-28.666702355381155,42.66955036718393 L-28.623735105309624,42.60954189307969 L-28.582707070206077,42.54802074828959 L-28.54365908875415,42.48504817002774 L-28.50663002872213,42.42068684024307 L-28.471656748274548,42.355000823226746 L-28.438774059284125,42.288055501843466 L-28.408014692680574,42.219917512450415 L-28.37940926587071,42.1506546785684 L-28.35298625226236,42.08033594337139 L-28.32877195292238,42.00903130106147 L-28.306790470396926,41.936811727197735 L-28.2870636847202,41.86374910804826 L-28.269611231635352,41.78991616903559 L-28.25445048304939,41.715386402346994 L-28.241596529741425,41.64023399378143 L-28.23106216634156,41.56453374890613 L-28.22285787859528,41.48836101859628 L-28.216991832926137,41.41179162403189 L-28.213469868306984,41.33490178122658 L-28.212295490447964,41.257768025163244 " />
			<path d="M29.363064247879098,45.35478234922913 L29.36175514213889,45.27316397403353 L29.357829277473368,45.19144985106856 L29.351291009936112,45.109730648538175 L29.34214759424581,45.028097040282475 L29.330409175736555,44.946639605168045 L29.316088779100845,44.865448726583594 L29.299202293937626,44.784614492152535 L29.279768457121566,44.70422659377373 L29.257808832013023,44.624374228101324 L29.23334778453181,44.545145997574075 L29.2064124561213,44.466629812104024 L29.177032733632885,44.388912791533606 L29.145241216164173,44.31208116896935 L29.111073178887736,44.23622019509951 L29.074566533910556,44.16141404360179 L29.035761788207584,44.087745717746046 L28.994701998676078,44.01529695829569 L28.951432724360615,43.94414815280992 L28.90600197590178,43.874378246447435 L28.858460162264592,43.80606465437062 L28.80886003480583,43.73928317584738 L28.757256628742276,43.674107910145935 L28.703707202084853,43.61061117431586 L28.64827117210637,43.5488634229467 L28.591010049413434,43.4889331699931 L28.53198736969561,43.430886912753195 L28.471268623227623,43.374789058084666 L28.40892118220277,43.32070185094033 L28.345014225978215,43.26868530530247 L28.27961866431508,43.21879713759264 L28.21280705869854,43.17109270263078 L28.14465354182516,43.12562493221474 L28.075233735346902,43.0824442763883 L28.00462466596298,43.041598647462905 L27.93290467995272,43.003133366855195 L27.860153356244243,42.967091114799395 L27.78645141811543,42.93351188299022 L27.711880643625136,42.90243293020898 L27.636523774874036,42.87388874098206 L27.560464426195814,42.84791098731762 L27.483786991380516,42.824528493563065 L27.406576550033048,42.80376720442213 L27.328918773170713,42.78565015616724 L27.250899828164517,42.77019745107898 L27.172606283129742,42.75742623514098 L27.09412501087185,42.74735067901518 L27.01554309249433,42.73998196231831 L26.936947720775407,42.735328261217305 L26.858426103420836,42.73339473935712 L26.780065366300146,42.73418354213133 L26.701952456773665,42.73769379430165 L26.624174047217657,42.743921600969 L26.546816438854528,42.75286005189531 L26.46996546599487,42.764499229170895 L26.393706400797626,42.778826218219166 L26.318123858653912,42.79582512212638 L26.243301704299675,42.815477079280484 L26.169322958761196,42.83776028429956 L26.096269707236775,42.862650012226624 L26.02422300801679,42.890118645963824 L25.953262802543204,42.92013570691586 L25.883467826708262,42.95266788880829 L25.8149155234909,42.987679094643504 L25.747681957027684,43.02513047675312 " />
			<path d="M25.747681957027677,43.02513047675313 L25.651168989017947,43.08467656435374 L25.557913708178653,43.1492870247114 L25.468140774649537,43.21880620556789 L25.38206645929065,43.29306662912737 L25.299898122666917,43.37188939552503 L25.221833715498352,43.45508461381257 L25.148061301779464,43.5424518594221 L25.078758605716597,43.63378065700647 L25.014092583574772,43.72885098749284 L24.954219021465402,43.82743381812789 L24.89928216004391,43.929291654237794 L24.849414347021362,44.03417911137366 L24.804735718327233,44.141843506464205 L24.765353908691438,44.25202546655135 L24.731363792342822,44.36445955364246 L24.702847254448855,44.478874904173665 L24.679872993847077,44.59499588154393 L24.662496357543585,44.71254274014778 L24.65075920737725,44.83123229930695 L24.64468981917087,44.95077862547744 L24.644302814612256,45.07089372108849 L24.649599126029283,45.19128821835393 L24.660565994143845,45.31167207638454 L24.677176998810076,45.43175527992194 L24.699392122662776,45.55124853801076 L24.72715784752277,45.669863980925896 L24.76040728332688,45.78731585367588 L24.799060329271953,45.903321204411675 L24.843023866784694,46.017600566082514 L24.892191983852484,46.12987862969642 L24.946446230174693,46.239884907563756 L25.005655902519816,46.34735438492573 L25.069678359601017,46.452028158398164 L25.138359365711487,46.55365405969243 L25.211533462291758,46.65198726311091 L25.289024366533877,46.746790875353625 L25.37064539606212,46.83783650621485 L25.456199918667195,46.924904818795184 L25.54548182601046,47.00778605790334 L25.638276030156945,47.08628055537477 L25.734358981741057,47.16019921108976 L25.833499208516553,47.22936394853218 L25.935457872993474,47.29360814379142 L26.039989347818572,47.35277702697397 L26.146841807513113,47.406728055057656 L26.25575783514253,47.45533125529029 L26.36647504245634,47.49846953830535 L26.478726702004447,47.5360389802006 L26.592242389706914,47.56794907289982 L26.70674863632926,47.59412294219471 L26.821969586293815,47.614497532941556 L26.93762766223995,47.62902376096666 L27.05344423373226,47.63766663131437 L27.169140288505687,47.64040532255297 L27.284437104630502,47.637233236935415 L27.399056921977852,47.628158016293774 L27.51272361136824,47.61320152362948 L27.625163339790898,47.59239979044339 L27.736105230091496,47.565802929932765 L27.84528201353894,47.5334750162642 L27.95243067369915,47.49549393021329 L28.05729308006468,47.4519511715431 L28.159616609913737,47.40295163857316 L28.259154756900415,47.348613375470244 " />
			<path d="M28.259154756900433,47.34861337547023 L28.32155078960655,47.31092915236819 L28.382634773288608,47.27113067493044 L28.44234590587605,47.229257557957574 L28.50062475181346,47.18535148131491 L28.55741330122184,47.13945614844497 L28.612655027640724,47.09161724286575 L28.666294944293796,47.04188238269802 L28.718279658821874,46.99030107326699 L28.768557426428853,46.93692465782546 L28.817078201387698,46.881806266447484 L28.863793686855196,46.82500076314357 L28.908657382945908,46.766564691249826 L28.95162463301744,46.70655621714558 L28.992652668120986,46.64503507235548 L29.03170064957291,46.582062494093634 L29.06872970960493,46.51770116430897 L29.103702990052515,46.45201514729264 L29.136585679042938,46.38506982590936 L29.167345045646492,46.31693183651631 L29.195950472456353,46.2476690026343 L29.222373486064697,46.17735026743728 L29.24658778540468,46.106045625127365 L29.268569267930133,46.03382605126363 L29.288296053606864,45.960763432114156 L29.30574850669171,45.88693049310149 L29.320909255277673,45.81240072641289 L29.333763208585637,45.737248317847325 L29.344297571985503,45.661548072972025 L29.35250185973178,45.585375342662175 L29.358367905400925,45.50880594809779 L29.36188987002008,45.43191610529247 L29.363064247879098,45.35478234922914 " />
			<path d="M-23.21891556660403,46.30476641584282 L-23.21891556660403,44.77734853573386 " />
			<path d="M-27.938207348434116,46.399755740920696 L-27.938207348434116,44.44152768949895 " />
			<path d="M-27.277506498977903,46.0159604880808 L-27.277506498977903,44.05773243665905 " />
			<path d="M-22.558214717147816,46.35178133431571 L-22.558214717147816,44.39355328289396 " />
			<path d="M-23.402563160125744,-44.3873891484913 L-29.31620498142663,-40.952207159730776 " />
			<path d="M-25.9140359599985,-48.710872047208404 L-31.827677781299386,-45.27569005844788 " />
			<path d="M34.17279657820132,-40.2903748244254 L28.259154756900433,-36.85519283566487 " />
			<path d="M31.661323778328565,-44.61385772314251 L25.747681957027677,-41.17867573438198 " />
			<path d="M-26.54601627279424,-40.82667262646919 L-30.90788193836665,-38.292903618377466 " />
			<path d="M22.819482738616713,42.991382844630955 L22.649121320164,43.090344278876174 " />
			<path d="M-23.402563160125744,39.81641706264381 L-29.31620498142663,43.251599051404334 " />
			<path d="M-25.9140359599985,35.492934163926705 L-31.827677781299386,38.92811615268723 " />
			<path d="M34.17279657820132,43.91343138670971 L28.259154756900433,47.34861337547024 " />
			<path d="M31.661323778328565,39.5899484879926 L25.747681957027677,43.02513047675313 " />

       </g>

       <!-- solid lines -->
       <g  stroke="rgb(0,0,0)" fill="none">
			<path d="M36.69249360372893,43.97857466576083 L36.688736529746386,44.10179354485575 L36.677480263014054,44.22398724475514 L36.658769609647784,44.34466936750784 L36.63267904831114,44.46335953206885 L36.5993124337494,44.579585286479414 L36.55880258339073,44.692883988484965 L36.511310748659994,44.80280464710501 L36.457025973109594,44.9089097178247 L36.396164339922436,45.01077684426191 L36.32896811178237,45.108000539377386 L36.25570476653581,45.20019379953551 L36.17666593248315,45.28698964499112 L36.09216622753823,45.36804258067012 L36.00254200687642,45.443029971429446 L35.90815002405653,45.51165332632187 L35.809366010946,45.573639486753706 " />
			<path d="M35.80936601094599,45.573639486753706 L35.752706135513385,45.60513027636697 L35.69488033637579,45.63445523308726 L35.63595973748087,45.66157828812317 L35.576016809346186,45.686466080954375 L35.51512527992271,45.70908800036409 L35.4533600439117,45.72941622208983 L35.39079707064655,45.74742574304649 L35.327513310652854,45.7630944120793 L35.26358660100161,45.77640295720909 L35.199095569572066,45.787335009336246 L35.13411953834182,45.795877122374144 L35.06873842582326,45.80201878978748 L35.00303264876624,45.80575245751495 L34.93708302324799,45.80707353326051 L34.870970665271805,45.80598039214179 L34.8047768909969,45.802474378688615 " />
			<path d="M36.692493603728934,-44.141687648217776 L36.692493603728934,43.978574665760824 " />
			<path d="M34.80477689099689,45.80247437868861 L-26.546016272794247,41.43680337763478 " />
			<path d="M36.69249360372893,-44.14168764821778 L36.690219766276215,-44.23793514887036 L36.68340373179166,-44.33427438959679 L36.672061920699356,-44.43047328072783 L36.656221656415646,-44.52630007070873 L36.63592109952463,-44.62152390440898 L36.611209155845984,-44.71591537927258 L36.58214535861654,-44.809247097968864 L36.54879972506951,-44.901294216212605 L36.511252587756836,-44.99183498443357 L36.46959440102105,-45.08065128199068 L36.42392552308282,-45.16752914264374 L36.37435597426923,-45.25225927001683 L36.32100517196515,-45.334637541811624 L36.264001642926296,-45.41446550155588 L36.203482713647055,-45.49155083670249 L36.13959417952889,-45.56570784192718 L36.07248995364647,-45.636757866509 L36.002331695957565,-45.70452974471547 L35.92928842385011,-45.768860208155886 L35.85353610496443,-45.82959427910913 L35.77525723327184,-45.886585643878604 L35.694640389430674,-45.939697005274716 L35.611879786478944,-45.98880041337587 L35.52717480195813,-46.03377757377099 L35.44072949759523,-46.07452013254115 L35.352752127700164,-46.110929937293655 L35.26345463746292,-46.142919273619725 L35.17305215235901,-46.17041107640622 L35.081762459893376,-46.19333911549222 L34.9898054849312,-46.21164815522333 L34.897402759879654,-46.22529408751913 L34.8047768909969,-46.2342440381335 " />
			<path d="M-28.433732985526277,39.344246987719075 L-28.43145914807356,39.440494488371655 L-28.42464311358901,39.536833729098085 L-28.413301302496706,39.63303262022912 L-28.39746103821299,39.72885941021002 L-28.37716048132198,39.82408324391027 L-28.352448537643333,39.91847471877387 L-28.32338474041389,40.011806437470156 L-28.290039106866857,40.1038535557139 L-28.252491969554182,40.19439432393486 L-28.210833782818398,40.283210621491975 L-28.16516490488017,40.37008848214503 L-28.11559535606658,40.45481860951812 L-28.062244553762497,40.537196881312916 L-28.005241024723645,40.61702484105717 L-27.944722095444405,40.69411017620378 L-27.88083356132624,40.76826718142847 L-27.813729335443814,40.83931720601029 L-27.743571077754915,40.907089084216764 L-27.670527805647456,40.97141954765718 L-27.594775486761772,41.03215361861042 L-27.516496615069187,41.089144983379896 L-27.43587977122802,41.14225634477601 L-27.35311916827629,41.19135975287716 L-27.26841418375548,41.23633691327228 L-27.18196887939258,41.277079472042445 L-27.093991509497513,41.31348927679495 L-27.00469401926027,41.34547861312102 L-26.91429153415636,41.37297041590751 L-26.823001841690726,41.395898454993514 L-26.731044866728553,41.41420749472462 L-26.638642141677,41.42785342702042 L-26.546016272794258,41.43680337763479 " />
			<path d="M-26.54601627279424,-50.599915039187316 L34.8047768909969,-46.23424403813349 " />
			<path d="M-28.433732985526277,39.34424698771907 L-28.433732985526277,-48.77601532625953 " />
			<path d="M-28.433732985526277,-48.77601532625954 L-28.42997591154374,-48.89923420535446 L-28.4187196448114,-49.02142790525385 L-28.400008991445134,-49.14211002800654 L-28.373918430108485,-49.26080019256756 L-28.340551815546743,-49.37702594697812 L-28.30004196518808,-49.490324648983666 L-28.252550130457344,-49.60024530760372 L-28.19826535490694,-49.70635037832341 L-28.137403721719785,-49.80821750476062 L-28.070207493579723,-49.905441199876094 L-27.996944148333156,-49.99763446003422 L-27.917905314280496,-50.084430305489825 L-27.833405609335575,-50.16548324116883 L-27.743781388673767,-50.24047063192816 L-27.649389405853885,-50.30909398682058 L-27.550605392743357,-50.37108014725241 " />
			<path d="M-27.550605392743343,-50.37108014725242 L-27.49394551731073,-50.40257093686568 L-27.436119718173135,-50.43189589358597 L-27.377199119278213,-50.459018948621875 L-27.31725619114353,-50.48390674145308 L-27.256364661720056,-50.5065286608628 L-27.194599425709047,-50.52685688258854 L-27.132036452443902,-50.5448664035452 L-27.068752692450204,-50.560535072578006 L-27.004825982798963,-50.5738436177078 L-26.94033495136942,-50.584775669834954 L-26.875358920139174,-50.59331778287285 L-26.80997780762061,-50.59945945028619 L-26.744272030563593,-50.60319311801366 L-26.67832240504534,-50.604514193759215 L-26.612210047069155,-50.6034210526405 L-26.54601627279424,-50.59991503918732 " />
			<path d="M-22.298653669147075,-46.38122017473239 L-22.299962774887284,-46.462838549927994 L-22.303888639552806,-46.54455267289296 L-22.31042690709006,-46.62627187542335 L-22.319570322780365,-46.70790548367905 L-22.331308741289618,-46.78936291879348 L-22.34562913792533,-46.87055379737793 L-22.362515623088548,-46.95138803180899 L-22.381949459904607,-47.03177593018779 L-22.40390908501315,-47.1116282958602 L-22.428370132494365,-47.19085652638745 L-22.455305460904874,-47.2693727118575 L-22.48468518339329,-47.34708973242792 L-22.516476700862,-47.423921354992174 L-22.550644738138438,-47.49978232886201 L-22.587151383115618,-47.574588480359736 L-22.62595612881859,-47.64825680621548 L-22.667015918350096,-47.72070556566583 L-22.71028519266556,-47.7918543711516 L-22.755715941124393,-47.86162427751409 L-22.80325775476158,-47.9299378695909 L-22.852857882220345,-47.99671934811414 L-22.904461288283898,-48.06189461381559 L-22.95801071494132,-48.12539134964566 L-23.013446744919804,-48.18713910101482 L-23.07070786761274,-48.24706935396842 L-23.129730547330563,-48.30511561120833 L-23.19044929379855,-48.36121346587686 L-23.252796734823402,-48.41530067302119 L-23.31670369104796,-48.467317218659055 L-23.382099252711093,-48.517205386368886 L-23.448910858327633,-48.564909821330744 L-23.517064375201013,-48.61037759174678 L-23.58648418167927,-48.65355824757322 L-23.657093251063195,-48.69440387649862 L-23.728813237073453,-48.73286915710633 L-23.80156456078193,-48.76891140916213 L-23.875266498910744,-48.80249064097131 L-23.949837273401037,-48.83356959375254 L-24.025194142152138,-48.86211378297946 L-24.10125349083036,-48.888091536643905 L-24.177930925645658,-48.91147403039846 L-24.255141366993126,-48.932235319539394 L-24.33279914385546,-48.95035236779428 L-24.410818088861657,-48.965805072882546 L-24.48911163389643,-48.97857628882054 L-24.567592906154324,-48.98865184494635 L-24.646174824531844,-48.99602056164321 L-24.724770196250766,-49.00067426274422 L-24.803291813605338,-49.00260778460441 L-24.881652550726027,-49.00181898183019 L-24.95976546025251,-48.998308729659875 L-25.037543869808516,-48.99208092299252 L-25.114901478171646,-48.98314247206621 L-25.191752451031302,-48.97150329479063 L-25.268011516228547,-48.95717630574236 L-25.34359405837226,-48.94017740183514 L-25.4184162127265,-48.92052544468104 L-25.492394958264978,-48.89824223966196 L-25.5654482097894,-48.8733525117349 L-25.637494909009384,-48.8458838779977 L-25.70845511448297,-48.815866817045666 L-25.77825009031791,-48.78333463515323 L-25.846802393535274,-48.74832342931802 L-25.91403595999849,-48.710872047208404 " />
			<path d="M-25.914035959998497,-48.7108720472084 L-26.010548928008227,-48.65132595960779 L-26.10380420884752,-48.586715499250126 L-26.193577142376636,-48.51719631839364 L-26.279651457735522,-48.44293589483416 L-26.361819794359256,-48.36411312843649 L-26.43988420152782,-48.28091791014895 L-26.51365661524671,-48.19355066453942 L-26.582959311309576,-48.102221866955055 L-26.6476253334514,-48.00715153646868 L-26.70749889556077,-47.90856870583363 L-26.762435756982264,-47.80671086972373 L-26.81230357000481,-47.70182341258786 L-26.85698219869894,-47.59415901749732 L-26.896364008334736,-47.48397705741017 L-26.93035412468335,-47.37154297031906 L-26.95887066257732,-47.25712761978786 L-26.981844923179096,-47.141006642417594 L-26.99922155948259,-47.02345978381374 L-27.010958709648925,-46.90477022465458 L-27.017028097855302,-46.785223898484084 L-27.017415102413917,-46.665108802873036 L-27.01211879099689,-46.54471430560759 L-27.00115192288233,-46.424330447576985 L-26.984540918216098,-46.30424724403959 L-26.962325794363398,-46.18475398595076 L-26.934560069503405,-46.06613854303563 L-26.901310633699293,-45.948686670285646 L-26.86265758775422,-45.83268131954985 L-26.81869405024148,-45.71840195787901 L-26.76952593317369,-45.6061238942651 L-26.71527168685148,-45.49611761639777 L-26.656062014506357,-45.388648139035794 L-26.592039557425156,-45.28397436556335 L-26.523358551314686,-45.1823484642691 L-26.450184454734416,-45.08401526085061 L-26.372693550492297,-44.9892116486079 L-26.291072520964054,-44.898166017746675 L-26.205517998358978,-44.81109770516634 L-26.116236091015715,-44.728216466058186 L-26.02344188686923,-44.64972196858675 L-25.927358935285117,-44.57580331287176 L-25.82821870850962,-44.50663857542934 L-25.7262600440327,-44.4423943801701 L-25.6217285692076,-44.383225496987556 L-25.51487610951306,-44.32927446890386 L-25.405960081883645,-44.28067126867124 L-25.295242874569833,-44.23753298565617 L-25.182991215021726,-44.19996354376092 L-25.06947552731926,-44.1680534510617 L-24.954969280696915,-44.141879581766815 L-24.83974833073236,-44.12150499101997 L-24.724090254786223,-44.10697876299486 L-24.608273683293913,-44.09833589264716 L-24.492577628520486,-44.09559720140855 L-24.37728081239567,-44.09876928702611 L-24.26266099504832,-44.10784450766775 L-24.148994305657933,-44.122801000332046 L-24.036554577235275,-44.14360273351814 L-23.925612686934677,-44.17019959402876 L-23.816435903487232,-44.202527507697326 L-23.709287243327022,-44.24050859374823 L-23.604424836961492,-44.28405135241842 L-23.502101307112437,-44.33305088538837 L-23.40256316012576,-44.38738914849128 " />
			<path d="M-23.40256316012574,-44.387389148491295 L-23.340167127419623,-44.425073371593335 L-23.279083143737566,-44.464871849031084 L-23.219372011150124,-44.50674496600395 L-23.161093165212712,-44.550651042646614 L-23.104304615804335,-44.59654637551655 L-23.04906288938545,-44.64438528109578 L-22.995422972732378,-44.694120141263504 L-22.9434382582043,-44.74570145069453 L-22.89316049059732,-44.79907786613607 L-22.844639715638476,-44.85419625751404 L-22.797924230170977,-44.91100176081795 L-22.753060534080266,-44.9694378327117 L-22.710093284008735,-45.02944630681594 L-22.669065248905188,-45.09096745160604 L-22.630017267453262,-45.15394002986789 L-22.592988207421243,-45.21830135965256 L-22.55801492697366,-45.28398737666888 L-22.525132237983236,-45.35093269805216 L-22.49437287137968,-45.41907068744521 L-22.46576744456982,-45.48833352132723 L-22.439344430961476,-45.55865225652424 L-22.415130131621492,-45.62995689883416 L-22.39314864909604,-45.70217647269789 L-22.37342186341931,-45.77523909184737 L-22.355969410334463,-45.849072030860036 L-22.3408086617485,-45.923601797548635 L-22.327954708440537,-45.9987542061142 L-22.31742034504067,-46.0744544509895 L-22.309216057294392,-46.15062718129935 L-22.30335001162525,-46.227196575863736 L-22.299828047006095,-46.30408641866905 L-22.298653669147075,-46.381220174732384 " />
			<path d="M35.27670606917999,-42.284205850666496 L35.275396963439775,-42.3658242258621 L35.27147109877425,-42.44753834882707 L35.264932831237,-42.52925755135745 L35.255789415546694,-42.61089115961315 L35.24405099703744,-42.692348594727584 L35.22973060040173,-42.773539473312034 L35.21284411523851,-42.85437370774309 L35.19341027842245,-42.934761606121896 L35.171450653313904,-43.014613971794304 L35.146989605832694,-43.093842202321554 L35.120054277422184,-43.172358387791604 L35.09067455493377,-43.25007540836202 L35.05888303746506,-43.32690703092628 L35.02471500018862,-43.402768004796116 L34.98820835521144,-43.47757415629384 L34.949403609508465,-43.55124248214958 L34.90834381997696,-43.623691241599936 L34.8650745456615,-43.694840047085705 L34.819643797202666,-43.76460995344819 L34.77210198356548,-43.832923545525006 L34.72250185610671,-43.899705024048245 L34.67089845004316,-43.96488028974969 L34.617349023385735,-44.028377025579765 L34.561912993407255,-44.090124776948926 L34.50465187071432,-44.150055029902525 L34.4456291909965,-44.20810128714243 L34.38491044452851,-44.26419914181096 L34.32256300350366,-44.3182863489553 L34.2586560472791,-44.37030289459316 L34.193260485615966,-44.42019106230299 L34.12644887999942,-44.46789549726485 L34.05829536312604,-44.51336326768089 L33.988875556647784,-44.55654392350733 L33.918266487263864,-44.59738955243272 L33.846546501253606,-44.63585483304043 L33.773795177545125,-44.671897085096234 L33.70009323941632,-44.70547631690541 L33.62552246492602,-44.73655526968665 L33.55016559617492,-44.76509945891357 L33.4741062474967,-44.79107721257801 L33.3974288126814,-44.81445970633256 L33.32021837133394,-44.8352209954735 L33.2425605944716,-44.853338043728385 L33.164541649465406,-44.86879074881665 L33.086248104430624,-44.881561964754646 L33.007766832172734,-44.89163752088045 L32.92918491379522,-44.89900623757732 L32.85058954207629,-44.903659938678324 L32.772067924721725,-44.90559346053851 L32.69370718760103,-44.904804657764295 L32.61559427807455,-44.90129440559398 L32.53781586851854,-44.895066598926626 L32.46045826015541,-44.88612814800032 L32.38360728729576,-44.874488970724734 L32.30734822209851,-44.86016198167646 L32.2317656799548,-44.84316307776925 L32.15694352560056,-44.823511120615144 L32.082964780062085,-44.801227915596066 L32.00991152853766,-44.776338187669005 L31.937864829317675,-44.748869553931804 L31.86690462384409,-44.71885249297977 L31.797109648009148,-44.686320311087336 L31.728557344791785,-44.651309105252125 L31.66132377832857,-44.61385772314251 " />
			<path d="M31.661323778328562,-44.6138577231425 L31.564810810318832,-44.55431163554189 L31.471555529479538,-44.48970117518423 L31.381782595950423,-44.42018199432774 L31.295708280591537,-44.34592157076826 L31.213539943967803,-44.2670988043706 L31.135475536799238,-44.183903586083055 L31.06170312308035,-44.09653634047353 L30.992400427017483,-44.00520754288916 L30.927734404875658,-43.91013721240279 L30.867860842766287,-43.811554381767735 L30.812923981344795,-43.709696545657835 L30.763056168322247,-43.60480908852197 L30.71837753962812,-43.49714469343142 L30.678995729992323,-43.386962733344276 L30.645005613643708,-43.27452864625317 L30.61648907574974,-43.16011329572196 L30.593514815147962,-43.0439923183517 L30.57613817884447,-42.926445459747846 L30.564401028678134,-42.80775590058868 L30.558331640471756,-42.68820957441819 L30.55794463591314,-42.56809447880714 L30.56324094733017,-42.447699981541696 L30.57420781544473,-42.32731612351109 L30.59081882011096,-42.20723291997369 L30.61303394396366,-42.08773966188487 L30.640799668823654,-41.96912421896973 L30.674049104627766,-41.85167234621975 L30.712702150572838,-41.73566699548395 L30.75666568808558,-41.621387633813114 L30.80583380515337,-41.50910957019921 L30.86008805147558,-41.39910329233187 L30.9192977238207,-41.2916338149699 L30.983320180901902,-41.18696004149746 L31.052001187012372,-41.0853341402032 L31.125175283592643,-40.98700093678472 L31.20266618783476,-40.892197324542 L31.284287217363005,-40.80115169368078 L31.36984173996808,-40.714083381100444 L31.459123647311344,-40.63120214199229 L31.55191785145783,-40.55270764452086 L31.648000803041942,-40.47878898880587 L31.74714102981744,-40.40962425136345 L31.84909969429436,-40.345380056104204 L31.953631169119458,-40.28621117292166 L32.060483628814,-40.232260144837966 L32.16939965644342,-40.183656944605346 L32.28011686375723,-40.14051866159028 L32.39236852330533,-40.10294921969503 L32.505884211007796,-40.07103912699581 L32.620390457630144,-40.04486525770092 L32.7356114075947,-40.02449066695407 L32.85126948354084,-40.00996443892897 L32.96708605503314,-40.00132156858126 L33.08278210980657,-39.998582877342656 L33.198078925931384,-40.00175496296021 L33.31269874327874,-40.010830183601854 L33.42636543266913,-40.02578667626615 L33.53880516109178,-40.04658840945224 L33.64974705139238,-40.07318526996286 L33.75892383483983,-40.10551318363143 L33.86607249500003,-40.143494269682336 L33.97093490136557,-40.18703702835253 L34.073258431214626,-40.23603656132247 L34.1727965782013,-40.290374824425385 " />
			<path d="M34.17279657820132,-40.2903748244254 L34.23519261090743,-40.32805904752744 L34.29627659458949,-40.36785752496519 L34.35598772717693,-40.409730641938054 L34.41426657311435,-40.45363671858072 L34.47105512252273,-40.49953205145066 L34.52629684894161,-40.547370957029884 L34.57993676559468,-40.59710581719761 L34.631921480122756,-40.64868712662864 L34.682199247729734,-40.70206354207017 L34.73072002268858,-40.757181933448145 L34.77743550815608,-40.81398743675206 L34.82229920424679,-40.8724235086458 L34.86526645431832,-40.932431982750046 L34.906294489421875,-40.993953127540145 L34.9453424708738,-41.056925705801994 L34.982371530905816,-41.12128703558666 L35.0173448113534,-41.18697305260299 L35.05022750034382,-41.25391837398627 L35.08098686694738,-41.32205636337932 L35.10959229375724,-41.39131919726133 L35.13601530736558,-41.461637932458345 L35.16022960670557,-41.53294257476826 L35.18221108923102,-41.605162148632 L35.20193787490775,-41.67822476778147 L35.21939032799259,-41.75205770679414 L35.234551076578555,-41.82658747348274 L35.24740502988652,-41.901739882048304 L35.25793939328639,-41.977440126923604 L35.266143681032666,-42.05361285723345 L35.27200972670181,-42.13018225179784 L35.275531691320964,-42.207072094603156 L35.27670606917998,-42.28420585066649 " />
			<path d="M29.647438921516056,-44.64300783237353 L29.572976393038864,-44.5079636090023 L29.50410878474496,-44.369479788273985 L29.44095131766239,-44.22778806471939 L29.383609659295313,-44.08312549994788 L29.332179746833816,-43.93573412602425 L29.28674762664328,-43.78586054052971 L29.247389310301923,-43.63375549398437 L29.214170647427352,-43.4796734703215 L29.187147215504847,-43.32387226111557 L29.166364226901806,-43.166612534276204 L29.151856453223807,-43.00815739792994 L29.14364816713893,-42.84877196021924 L29.141753101767655,-42.68872288575527 L29.14617442770622,-42.52827794946671 L29.156904747721985,-42.36770558859078 L29.17392610912959,-42.207274453556245 L29.19721003382722,-42.04725295850973 L29.226717565942778,-41.887908832237315 L29.262399337010162,-41.729508670232846 L29.304195648566672,-41.572317488662286 L29.35203657203332,-41.41659828097045 L29.40584206571095,-41.26261157787187 L29.46552210869641,-41.11061501146205 L29.530976851494753,-40.96086288417832 L29.60209678307542,-40.81360574333146 L29.678762914092996,-40.66908996191998 L29.7608469759659,-40.527557326428365 L29.848211635480023,-40.389244632298876 L29.940710724558173,-40.254383287753825 L30.03818948481102,-40.12319892663106 L30.14048482646025,-39.99591103088048 L30.24742560120085,-39.872732563353104 L30.358832888545948,-39.75386961149723 L30.47452029517511,-39.639521042557526 L30.594294266785315,-39.529878170854275 L30.71795441192281,-39.42512443769913 L30.845293837254072,-39.32543510448311 L30.97609949371494,-39.23097695945027 L31.11015253295878,-39.14190803864756 L31.24722867350729,-39.058377361517884 L31.38709857599141,-38.98052468157863 L31.52952822685445,-38.9084802526028 L31.67427932987553,-38.84236461069407 L31.821109704858277,-38.78228837262016 L31.96977369281765,-38.72835205074216 L32.120022566987174,-38.680645884849284 L32.271604948958704,-38.639249691180474 L32.42426722925868,-38.604232728885414 L32.57775399165709,-38.57565358414845 L32.73180844049929,-38.5535600721692 L32.886172830345714,-38.53798915716387 L33.04058889720067,-38.528966890521204 L33.19479829060867,-38.52650836721637 L33.34854300589548,-38.53061770055591 L33.501565815830595,-38.54128801529579 L33.65361070098904,-38.558501459144296 L33.804423278092344,-38.58222923263028 L33.95375122561219,-38.612431637287074 L34.10134470592452,-38.649058142071105 L34.246956783307944,-38.69204746790446 L34.39034383708697,-38.74132769019964 L34.5312659692289,-38.796816359195205 L34.6694874057125,-38.8584206379008 L34.8047768909968,-38.926037457420875 " />
			<path d="M-21.38867830331349,-48.27469514210375 L29.647438921516034,-44.64300783237356 " />
			<path d="M34.80477689099689,-38.92603745742086 L34.80477689099689,38.49426779797598 " />
			<path d="M-21.388678303313494,-48.27469514210382 L-21.344397295658176,-48.18973470131645 L-21.30201813051379,-48.103832720803815 L-21.261565129206502,-48.01703849955704 L-21.223061507640537,-47.92940184862258 L-21.186529362974607,-47.840973062515786 L-21.15198966094042,-47.75180289035693 L-21.11946222381044,-47.66194250674639 L-21.088965719021967,-47.571443482395686 L-21.06051764846389,-47.480357754531056 L-21.03413433843241,-47.38873759708686 L-21.009830930261394,-47.296635590705606 L-20.9876213716328,-47.20410459256203 L-20.967518408572126,-47.111197706028484 L-20.949533578133483,-47.01796825019897 L-20.933677201778497,-46.924469729289434 L-20.919958379452865,-46.83075580193178 L-20.908384984363884,-46.73688025037928 L-20.898963658462044,-46.64289694964104 L-20.891699808629227,-46.548859836563246 L-20.88659760357571,-46.45482287887486 L-20.883659971447724,-46.360840044215685 L-20.88288859814704,-46.26696526916441 L-20.8842839263634,-46.17325242828451 L-20.88784515532046,-46.07975530320574 L-20.89357024123537,-45.98652755175892 L-20.90145589849169,-45.893622677181874 L-20.91149760152499,-45.801093997413936 L-20.92368958742008,-45.708994614496945 L-20.93802485921832,-45.61737738410004 L-20.954495189933176,-45.526294885185905 L-20.973091127271665,-45.4357993898358 L-20.99380199905901,-45.345942833250696 L-21.016615919363375,-45.25677678394576 L-21.041519795317203,-45.16835241415529 L-21.06849933463116,-45.080720470465046 L-21.097539053796467,-44.99393124468889 L-21.128622286970867,-44.908034545006394 L-21.161731195543098,-44.82307966737802 L-21.19684677837047,-44.73911536725426 L-21.23394888268356,-44.65618983159496 L-21.273016215651857,-44.57435065121494 L-21.314026356603698,-44.493644793471674 L-21.356955769893414,-44.41411857531084 L-21.401779818408432,-44.33581763668508 L-21.448472777708446,-44.25878691436134 L-21.497007850788634,-44.183070616131715 L-21.54735718345841,-44.10871219544271 L-21.599491880326894,-44.03575432645737 L-21.653382021385923,-43.96423887956463 L-21.708996679181094,-43.89420689735001 L-21.766303936560966,-43.825698571041336 L-21.825270904994262,-43.758753217443065 L-21.885863743444542,-43.693409256372455 L-21.948047677791493,-43.62970418861048 L-22.011787020787757,-43.56767457438021 L-22.07704519253977,-43.50735601236497 L-22.143784741500887,-43.448783119278325 L-22.21196736596476,-43.39198950999758 L-22.281553936046638,-43.3370077782723 L-22.35250451613991,-43.28386947801881 L-22.424778387835087,-43.23260510521142 L-22.49833407328803,-43.183244080380895 L-22.57312935902401,-43.13581473173004 L-22.649121320163907,-43.0903442788762 " />
			<path d="M-22.64912132016392,-43.090344278876195 L-22.758609720442706,-43.02940106552747 L-22.870280902055246,-42.97250209127652 L-22.98400655259724,-42.919712734174155 L-23.099655999038806,-42.871093650239544 L-23.217096357870396,-42.8267007037652 L-23.336192687788575,-42.78658490312779 L-23.456808144746248,-42.75079234217854 L-23.578804139189206,-42.719364147280444 L-23.70204049529827,-42.69233643005327 L-23.826375612054083,-42.669740245880604 L-23.951666625939488,-42.65160155822659 L-24.07776957509256,-42.63794120880338 L-24.20453956472164,-42.62877489362363 L-24.3318309335923,-42.624113144965406 L-24.45949742139504,-42.623961319270464 L-24.587392336801244,-42.628319590989534 L-24.715368726014457,-42.637182952381906 L-24.843279541623186,-42.65054121926941 L-24.970977811561333,-42.66837904273822 L-25.098316807981977,-42.690675926775114 L-25.225150215850608,-42.71740625181775 L-25.351332301063994,-42.74853930419206 L-25.476718077901566,-42.784039311402886 L-25.601163475616882,-42.82386548323729 L-25.724525503977784,-42.8679720586333 L-25.846662417564996,-42.91630835826029 L-25.96743387864045,-42.96881884275054 L-26.086701118398096,-43.02544317651504 L-26.204327096412058,-43.08611629707034 L-26.32017665809877,-43.1507684897966 L-26.43411669001229,-43.21932546804103 L-26.546016272794255,-43.2917084584748 " />
			<path d="M34.80477689099683,38.494267797976 L34.69287730821483,38.42188480754222 L34.57893727630132,38.3533278292978 L34.46308771461461,38.288675636571554 L34.345461736600654,38.22800251601626 L34.22619449684301,38.17137818225176 L34.105423035767565,38.11886769776153 L33.98328612218036,38.07053139813454 L33.859924093819465,38.02642482273854 L33.73547869610415,37.98659865090414 L33.610092919266584,37.95109864369332 L33.483910834053205,37.91996559131901 L33.35707742618458,37.89323526627639 L33.22973842976394,37.8709383822395 L33.102040159825805,37.85310055877069 L32.97412934421708,37.83974229188319 L32.84615295500388,37.830878930490826 L32.71825803959768,37.826520658771756 L32.590591551794944,37.8266724844667 L32.46330018292429,37.83133423312492 L32.336530193295225,37.84050054830468 L32.21042724414215,37.85416089772789 L32.08513623025676,37.8722995853819 L31.960801113500953,37.894895769554566 L31.837564757391895,37.921923486781736 L31.71556876294894,37.953351681679834 L31.594953305991275,37.98914424262908 L31.475856976073107,38.02926004326648 L31.358416617241524,38.07365298974083 L31.242767170799958,38.12227207367543 L31.12904152025797,38.175061430777795 L31.01737033864544,38.231960405028744 L30.90788193836667,38.29290361837745 " />
			<path d="M30.907881938366657,38.29290361837746 L30.831889977226744,38.33837407123131 L30.757094691490767,38.38580341988216 L30.683539006037822,38.435164444712676 L30.611265134342645,38.486428817520064 L30.540314554249374,38.53956711777356 L30.470727984167493,38.59454884949883 L30.402545359703616,38.651342458779574 L30.335805810742503,38.70991535186622 L30.27054763899049,38.770233913881455 L30.20680829599422,38.832263528111724 L30.14462436164727,38.8959685958737 L30.08403152319699,38.96131255694431 L30.02506455476369,39.02825791054257 L29.96775729738382,39.09676623685124 L29.912142639588648,39.16679821906586 L29.858252498529616,39.2383136659586 L29.80611780166113,39.31127153494394 L29.755768468991352,39.385629955632936 L29.707233395911164,39.46134625386256 L29.66054043661115,39.5383769761863 L29.61571638809613,39.61667791481206 L29.57278697480641,39.696204132972895 L29.53177683385457,39.77690999071615 L29.492709500886267,39.85874917109617 L29.45560739657318,39.941674706755464 L29.420491813745805,40.025639006879224 L29.387382905173567,40.110593884507594 L29.356299671999167,40.196490584190094 L29.327259952833856,40.283279809966245 L29.300280413519896,40.370911753656486 L29.275376537566068,40.45933612344695 L29.252562617261695,40.54850217275189 L29.231851745474348,40.63835872933699 L29.213255808135855,40.7288542246871 L29.196785477420995,40.819936723601224 L29.182450205622754,40.91155395399813 L29.17025821972766,41.00365333691512 L29.16021651669436,41.09618201668306 L29.152330859438035,41.189086891260104 L29.14660577352312,41.282314642706915 L29.143044544566056,41.375811767785684 L29.141649216349695,41.46952460866559 L29.142420589650374,41.56339938371686 L29.145358221778352,41.657382218376036 L29.15046042683187,41.75141917606442 L29.157724276664684,41.84545628914221 L29.167145602566517,41.93943958988045 L29.178718997655494,42.033315141432944 L29.192437819981123,42.1270290687906 L29.208294196336105,42.22052758970014 L29.226279026774744,42.313757045529655 L29.246381989835413,42.406663932063196 L29.268591548464002,42.49919493020677 L29.292894956635013,42.59129693658803 L29.31927826666649,42.68291709403223 L29.347726337224564,42.77400282189686 L29.378222842013034,42.86450184624756 L29.410750279143006,42.95436222985809 L29.44528998117719,43.04353240201696 L29.481822125843113,43.13196118812375 L29.520325747409075,43.21959783905821 L29.56077874871636,43.306392060304994 L29.60315791386074,43.39229404081763 L29.647438921516038,43.477254481604966 " />
			<path d="M-26.54601627279424,-43.29170845847481 L-26.54601627279424,34.12859679692227 " />
			<path d="M-21.38867830331349,39.84556717187485 L29.647438921516034,43.47725448160504 " />
			<path d="M-26.546016272794276,34.12859679692227 L-26.410726787509947,34.06097997740216 L-26.272505351026343,33.99937569869656 L-26.13158321888441,33.94388702970098 L-25.988196165105386,33.89460680740579 L-25.842584087721956,33.85161748157244 L-25.694990607409622,33.8149909767884 L-25.54566265988978,33.7847885721316 L-25.394850082786473,33.7610607986456 L-25.242805197628027,33.7438473547971 L-25.089782387692903,33.73317704005721 L-24.93603767240609,33.729067706717665 L-24.781828278998084,33.73152623002249 L-24.62741221214313,33.74054849666515 L-24.4730478222967,33.75611941167047 L-24.318993373454497,33.778212923649725 L-24.16550661105608,33.806792068386684 L-24.0128443307561,33.84180903068174 L-23.861261948784563,33.883205224350554 L-23.711013074615035,33.93091139024342 L-23.562349086655654,33.98484771212142 L-23.41551871167291,34.044923950195326 L-23.27076760865182,34.11103959210406 L-23.128337957788776,34.183084021079885 L-22.98846805530465,34.26093670101914 L-22.851391914756135,34.34446737814882 L-22.717338875512294,34.43353629895153 L-22.586533219051418,34.527994443984376 L-22.459193793720154,34.627683777200396 L-22.335533648582654,34.732437510355545 L-22.215759676972446,34.842080382058796 L-22.10007227034328,34.9564289509985 L-21.988664982998177,35.07529190285438 L-21.88172420825757,35.19847037038176 L-21.779428866608338,35.325758266132354 L-21.681950106355494,35.45694262725512 L-21.589451017277337,35.591803971800175 L-21.50208635776322,35.730116665929664 L-21.42000229589031,35.871649301421286 L-21.343336164872735,36.016165082832764 L-21.272216233292063,36.16342222367963 L-21.206761490493722,36.31317435096337 L-21.147081447508263,36.46517091737319 L-21.093275953830634,36.61915762047178 L-21.04543503036399,36.77487682816362 L-21.00363871880748,36.93206800973418 L-20.9679569477401,37.09046817173866 L-20.938449415624543,37.24981229801108 L-20.915165490926913,37.4098337930576 L-20.898144129519316,37.570264928092136 L-20.887413809503553,37.730837288968075 L-20.882992483564994,37.89128222525664 L-20.884887548936277,38.05133129972061 L-20.893095835021153,38.21071673743132 L-20.907603608699162,38.36917187377758 L-20.928386597302207,38.52643160061695 L-20.955410029224716,38.68223280982289 L-20.988628692099297,38.83631483348575 L-21.02798700844066,38.9884198800311 L-21.07341912863121,39.13829346552565 L-21.124849041092713,39.285684839449274 L-21.182190699459795,39.43034740422079 L-21.245348166542374,39.572039127775376 L-21.31421577483629,39.710522948503694 L-21.388678303313476,39.845567171874904 " />
			<path d="M-22.298653669147075,37.82258603640271 L-22.299962774887284,37.74096766120711 L-22.303888639552806,37.65925353824214 L-22.31042690709006,37.57753433571175 L-22.319570322780365,37.49590072745605 L-22.331308741289618,37.41444329234162 L-22.34562913792533,37.33325241375717 L-22.362515623088548,37.25241817932611 L-22.381949459904607,37.17203028094731 L-22.40390908501315,37.0921779152749 L-22.428370132494365,37.01294968474765 L-22.455305460904874,36.9344334992776 L-22.48468518339329,36.856716478707185 L-22.516476700862,36.77988485614293 L-22.550644738138438,36.70402388227309 L-22.587151383115618,36.629217730775366 L-22.62595612881859,36.555549404919624 L-22.667015918350096,36.48310064546927 L-22.71028519266556,36.4119518399835 L-22.755715941124393,36.34218193362101 L-22.80325775476158,36.2738683415442 L-22.852857882220345,36.20708686302096 L-22.904461288283898,36.14191159731951 L-22.95801071494132,36.07841486148944 L-23.013446744919804,36.01666711012028 L-23.07070786761274,35.95673685716668 L-23.129730547330563,35.89869059992677 L-23.19044929379855,35.842592745258244 L-23.252796734823402,35.78850553811391 L-23.31670369104796,35.73648899247605 L-23.382099252711093,35.68660082476622 L-23.448910858327633,35.63889638980436 L-23.517064375201013,35.59342861938832 L-23.58648418167927,35.55024796356188 L-23.657093251063195,35.50940233463648 L-23.728813237073453,35.470937054028774 L-23.80156456078193,35.43489480197297 L-23.875266498910744,35.401315570163796 L-23.949837273401037,35.37023661738256 L-24.025194142152138,35.34169242815564 L-24.10125349083036,35.3157146744912 L-24.177930925645658,35.29233218073664 L-24.255141366993126,35.27157089159571 L-24.33279914385546,35.25345384334082 L-24.410818088861657,35.23800113825256 L-24.48911163389643,35.22522992231456 L-24.567592906154324,35.215154366188756 L-24.646174824531844,35.20778564949189 L-24.724770196250766,35.20313194839088 L-24.803291813605338,35.201198426530695 L-24.881652550726027,35.20198722930491 L-24.95976546025251,35.20549748147523 L-25.037543869808516,35.21172528814258 L-25.114901478171646,35.22066373906889 L-25.191752451031302,35.23230291634447 L-25.268011516228547,35.246629905392744 L-25.34359405837226,35.26362880929996 L-25.4184162127265,35.28328076645406 L-25.492394958264978,35.30556397147314 L-25.5654482097894,35.3304536994002 L-25.637494909009384,35.3579223331374 L-25.70845511448297,35.387939394089436 L-25.77825009031791,35.42047157598187 L-25.846802393535274,35.45548278181708 L-25.91403595999849,35.4929341639267 " />
			<path d="M-25.914035959998497,35.492934163926705 L-26.010548928008227,35.552480251527314 L-26.10380420884752,35.61709071188498 L-26.193577142376636,35.686609892741465 L-26.279651457735522,35.760870316300945 L-26.361819794359256,35.83969308269861 L-26.43988420152782,35.92288830098615 L-26.51365661524671,36.01025554659568 L-26.582959311309576,36.10158434418005 L-26.6476253334514,36.19665467466642 L-26.70749889556077,36.29523750530147 L-26.762435756982264,36.39709534141137 L-26.81230357000481,36.50198279854724 L-26.85698219869894,36.609647193637784 L-26.896364008334736,36.71982915372493 L-26.93035412468335,36.83226324081604 L-26.95887066257732,36.94667859134724 L-26.981844923179096,37.06279956871751 L-26.99922155948259,37.18034642732136 L-27.010958709648925,37.299035986480526 L-27.017028097855302,37.41858231265102 L-27.017415102413917,37.53869740826207 L-27.01211879099689,37.65909190552751 L-27.00115192288233,37.77947576355812 L-26.984540918216098,37.899558967095516 L-26.962325794363398,38.01905222518434 L-26.934560069503405,38.137667668099475 L-26.901310633699293,38.255119540849456 L-26.86265758775422,38.371124891585254 L-26.81869405024148,38.48540425325609 L-26.76952593317369,38.59768231687 L-26.71527168685148,38.707688594737334 L-26.656062014506357,38.81515807209931 L-26.592039557425156,38.91983184557175 L-26.523358551314686,39.021457746866005 L-26.450184454734416,39.11979095028449 L-26.372693550492297,39.2145945625272 L-26.291072520964054,39.30564019338843 L-26.205517998358978,39.39270850596876 L-26.116236091015715,39.47558974507692 L-26.02344188686923,39.55408424254835 L-25.927358935285117,39.62800289826334 L-25.82821870850962,39.69716763570576 L-25.7262600440327,39.761411830965 L-25.6217285692076,39.820580714147546 L-25.51487610951306,39.87453174223124 L-25.405960081883645,39.92313494246386 L-25.295242874569833,39.96627322547893 L-25.182991215021726,40.00384266737418 L-25.06947552731926,40.0357527600734 L-24.954969280696915,40.06192662936829 L-24.83974833073236,40.082301220115134 L-24.724090254786223,40.09682744814024 L-24.608273683293913,40.105470318487946 L-24.492577628520486,40.10820900972655 L-24.37728081239567,40.105036924108994 L-24.26266099504832,40.09596170346735 L-24.148994305657933,40.081005210803056 L-24.036554577235275,40.060203477616966 L-23.925612686934677,40.033606617106344 L-23.816435903487232,40.00127870343778 L-23.709287243327022,39.96329761738687 L-23.604424836961492,39.91975485871668 L-23.502101307112437,39.870755325746735 L-23.40256316012576,39.81641706264382 " />
			<path d="M-23.40256316012574,39.81641706264381 L-23.340167127419623,39.77873283954177 L-23.279083143737566,39.73893436210402 L-23.219372011150124,39.69706124513115 L-23.161093165212712,39.65315516848849 L-23.104304615804335,39.60725983561855 L-23.04906288938545,39.55942093003932 L-22.995422972732378,39.5096860698716 L-22.9434382582043,39.45810476044057 L-22.89316049059732,39.404728344999036 L-22.844639715638476,39.34960995362106 L-22.797924230170977,39.29280445031715 L-22.753060534080266,39.234368378423405 L-22.710093284008735,39.17435990431916 L-22.669065248905188,39.11283875952906 L-22.630017267453262,39.04986618126721 L-22.592988207421243,38.985504851482546 L-22.55801492697366,38.91981883446622 L-22.525132237983236,38.85287351308294 L-22.49437287137968,38.78473552368989 L-22.46576744456982,38.715472689807875 L-22.439344430961476,38.64515395461086 L-22.415130131621492,38.57384931230094 L-22.39314864909604,38.50162973843721 L-22.37342186341931,38.428567119287734 L-22.355969410334463,38.35473418027507 L-22.3408086617485,38.28020441358647 L-22.327954708440537,38.2050520050209 L-22.31742034504067,38.1293517601456 L-22.309216057294392,38.05317902983575 L-22.30335001162525,37.976609635271366 L-22.299828047006095,37.89971979246605 L-22.298653669147075,37.82258603640272 " />
			<path d="M35.27670606917999,41.91960036046861 L35.275396963439775,41.837981985273004 L35.27147109877425,41.756267862308036 L35.264932831237,41.67454865977765 L35.255789415546694,41.59291505152195 L35.24405099703744,41.51145761640752 L35.22973060040173,41.43026673782307 L35.21284411523851,41.34943250339201 L35.19341027842245,41.26904460501321 L35.171450653313904,41.1891922393408 L35.146989605832694,41.10996400881355 L35.120054277422184,41.0314478233435 L35.09067455493377,40.95373080277308 L35.05888303746506,40.876899180208824 L35.02471500018862,40.80103820633899 L34.98820835521144,40.72623205484126 L34.949403609508465,40.65256372898552 L34.90834381997696,40.58011496953517 L34.8650745456615,40.5089661640494 L34.819643797202666,40.43919625768691 L34.77210198356548,40.3708826656101 L34.72250185610671,40.30410118708686 L34.67089845004316,40.23892592138541 L34.617349023385735,40.17542918555534 L34.561912993407255,40.11368143418618 L34.50465187071432,40.05375118123258 L34.4456291909965,39.99570492399267 L34.38491044452851,39.93960706932414 L34.32256300350366,39.885519862179805 L34.2586560472791,39.83350331654194 L34.193260485615966,39.78361514883211 L34.12644887999942,39.735910713870254 L34.05829536312604,39.690442943454215 L33.988875556647784,39.647262287627775 L33.918266487263864,39.60641665870238 L33.846546501253606,39.56795137809467 L33.773795177545125,39.53190912603887 L33.70009323941632,39.49832989422969 L33.62552246492602,39.467250941448455 L33.55016559617492,39.438706752221535 L33.4741062474967,39.41272899855709 L33.3974288126814,39.38934650480254 L33.32021837133394,39.368585215661604 L33.2425605944716,39.35046816740672 L33.164541649465406,39.33501546231845 L33.086248104430624,39.32224424638046 L33.007766832172734,39.31216869025465 L32.92918491379522,39.304799973557785 L32.85058954207629,39.30014627245678 L32.772067924721725,39.29821275059659 L32.69370718760103,39.29900155337081 L32.61559427807455,39.30251180554112 L32.53781586851854,39.30873961220848 L32.46045826015541,39.317678063134785 L32.38360728729576,39.32931724041037 L32.30734822209851,39.34364422945864 L32.2317656799548,39.360643133365855 L32.15694352560056,39.38029509051996 L32.082964780062085,39.40257829553904 L32.00991152853766,39.4274680234661 L31.937864829317675,39.4549366572033 L31.86690462384409,39.48495371815533 L31.797109648009148,39.51748590004777 L31.728557344791785,39.55249710588298 L31.66132377832857,39.589948487992594 " />
			<path d="M31.661323778328562,39.5899484879926 L31.564810810318832,39.64949457559321 L31.471555529479538,39.71410503595087 L31.381782595950423,39.78362421680736 L31.295708280591537,39.85788464036684 L31.213539943967803,39.936707406764505 L31.135475536799238,40.01990262505205 L31.06170312308035,40.107269870661575 L30.992400427017483,40.19859866824594 L30.927734404875658,40.293668998732315 L30.867860842766287,40.39225182936737 L30.812923981344795,40.49410966547727 L30.763056168322247,40.598997122613135 L30.71837753962812,40.70666151770368 L30.678995729992323,40.816843477790826 L30.645005613643708,40.929277564881936 L30.61648907574974,41.04369291541314 L30.593514815147962,41.159813892783404 L30.57613817884447,41.277360751387256 L30.564401028678134,41.39605031054642 L30.558331640471756,41.515596636716914 L30.55794463591314,41.63571173232796 L30.56324094733017,41.75610622959341 L30.57420781544473,41.87649008762401 L30.59081882011096,41.99657329116141 L30.61303394396366,42.116066549250235 L30.640799668823654,42.23468199216537 L30.674049104627766,42.35213386491535 L30.712702150572838,42.46813921565115 L30.75666568808558,42.58241857732199 L30.80583380515337,42.694696640935895 L30.86008805147558,42.80470291880323 L30.9192977238207,42.912172396165204 L30.983320180901902,43.016846169637645 L31.052001187012372,43.1184720709319 L31.125175283592643,43.216805274350385 L31.20266618783476,43.3116088865931 L31.284287217363005,43.40265451745432 L31.36984173996808,43.48972283003466 L31.459123647311344,43.57260406914281 L31.55191785145783,43.651098566614245 L31.648000803041942,43.725017222329235 L31.74714102981744,43.794181959771656 L31.84909969429436,43.8584261550309 L31.953631169119458,43.91759503821344 L32.060483628814,43.97154606629714 L32.16939965644342,44.02014926652976 L32.28011686375723,44.063287549544825 L32.39236852330533,44.100856991440075 L32.505884211007796,44.132767084139296 L32.620390457630144,44.15894095343418 L32.7356114075947,44.17931554418103 L32.85126948354084,44.193841772206135 L32.96708605503314,44.20248464255384 L33.08278210980657,44.205223333792446 L33.198078925931384,44.20205124817489 L33.31269874327874,44.19297602753325 L33.42636543266913,44.17801953486895 L33.53880516109178,44.15721780168286 L33.64974705139238,44.13062094117224 L33.75892383483983,44.09829302750367 L33.86607249500003,44.06031194145277 L33.97093490136557,44.016769182782575 L34.073258431214626,43.96776964981263 L34.1727965782013,43.91343138670972 " />
			<path d="M34.17279657820132,43.9134313867097 L34.23519261090743,43.87574716360766 L34.29627659458949,43.835948686169914 L34.35598772717693,43.79407556919705 L34.41426657311435,43.750169492554384 L34.47105512252273,43.704274159684445 L34.52629684894161,43.65643525410522 L34.57993676559468,43.606700393937494 L34.631921480122756,43.555119084506465 L34.682199247729734,43.50174266906493 L34.73072002268858,43.44662427768696 L34.77743550815608,43.389818774383045 L34.82229920424679,43.3313827024893 L34.86526645431832,43.271374228385056 L34.906294489421875,43.20985308359496 L34.9453424708738,43.14688050533311 L34.982371530905816,43.08251917554844 L35.0173448113534,43.016833158532116 L35.05022750034382,42.949887837148836 L35.08098686694738,42.881749847755785 L35.10959229375724,42.81248701387377 L35.13601530736558,42.74216827867676 L35.16022960670557,42.67086363636684 L35.18221108923102,42.598644062503105 L35.20193787490775,42.52558144335363 L35.21939032799259,42.45174850434096 L35.234551076578555,42.37721873765236 L35.24740502988652,42.3020663290868 L35.25793939328639,42.2263660842115 L35.266143681032666,42.15019335390165 L35.27200972670181,42.07362395933726 L35.275531691320964,41.99673411653195 L35.27670606917998,41.919600360468614 " />
			<path d="M26.54601627279424,50.599915039187316 L-34.8047768909969,46.23424403813349 " />
			<path d="M-23.21891556660403,46.735576587155606 L-27.938207348434116,46.399755740920696 " />
			<path d="M-27.938207348434116,46.399755740920696 L-27.277506498977903,46.0159604880808 " />
			<path d="M-27.277506498977903,46.0159604880808 L-22.558214717147816,46.35178133431571 " />
			<path d="M-22.558214717147816,46.35178133431571 L-23.21891556660403,46.735576587155606 " />
			<path d="M-36.692493603728934,44.141687648217776 L-36.692493603728934,-43.978574665760824 " />
			<path d="M34.80477708920715,-38.92603757255951 L26.54601627279424,-34.12859679692222 " />
			<path d="M29.64743911972633,-44.643007947512146 L21.38867830331342,-39.845567171874855 " />
			<path d="M21.3886783033135,-39.845567171875 L21.314215774836303,-39.71052294850377 L21.245348166542385,-39.572039127775454 L21.182190699459806,-39.43034740422086 L21.124849041092723,-39.28568483944935 L21.073419128631215,-39.13829346552571 L21.027987008440668,-38.988419880031174 L20.988628692099304,-38.83631483348582 L20.955410029224723,-38.682232809822956 L20.928386597302215,-38.526431600617016 L20.907603608699166,-38.369171873777645 L20.893095835021157,-38.21071673743138 L20.88488754893628,-38.051331299720665 L20.882992483564998,-37.891282225256695 L20.887413809503556,-37.73083728896813 L20.898144129519316,-37.57026492809219 L20.915165490926917,-37.40983379305765 L20.938449415624543,-37.24981229801113 L20.9679569477401,-37.090468171738706 L21.003638718807483,-36.93206800973423 L21.04543503036399,-36.77487682816367 L21.093275953830634,-36.619157620471825 L21.147081447508263,-36.465170917373236 L21.206761490493726,-36.313174350963415 L21.272216233292067,-36.163422223679675 L21.343336164872735,-36.016165082832806 L21.42000229589031,-35.87164930142132 L21.50208635776322,-35.7301166659297 L21.58945101727734,-35.5918039718002 L21.681950106355497,-35.45694262725515 L21.779428866608345,-35.32575826613238 L21.881724208257577,-35.198470370381784 L21.98866498299818,-35.07529190285441 L22.100072270343283,-34.95642895099852 L22.215759676972453,-34.84208038205882 L22.335533648582665,-34.73243751035557 L22.459193793720164,-34.62768377720041 L22.586533219051432,-34.52799444398439 L22.717338875512304,-34.433536298951545 L22.85139191475615,-34.344467378148835 L22.988468055304665,-34.260936701019155 L23.128337957788787,-34.1830840210799 L23.270767608651834,-34.11103959210407 L23.415518711672927,-34.04492395019534 L23.562349086655676,-33.98484771212143 L23.711013074615057,-33.93091139024343 L23.861261948784588,-33.88320522435056 L24.012844330756124,-33.841809030681745 L24.16550661105611,-33.806792068386684 L24.31899337345452,-33.778212923649725 L24.473047822296728,-33.756119411670475 L24.62741221214316,-33.740548496665156 L24.781828278998116,-33.73152623002249 L24.936037672406123,-33.729067706717665 L25.08978238769294,-33.73317704005721 L25.242805197628066,-33.7438473547971 L25.394850082786512,-33.7610607986456 L25.545662659889818,-33.7847885721316 L25.69499060740966,-33.814990976788394 L25.842584087722,-33.85161748157244 L25.98819616510543,-33.89460680740579 L26.131583218884455,-33.94388702970098 L26.272505351026393,-33.99937569869656 L26.41072678751,-34.06097997740216 L26.5460162727943,-34.12859679692225 " />
			<path d="M-22.819482738616717,-42.99138284463095 L21.388678303313554,-39.84556717187484 " />
			<path d="M26.54601627279424,-34.12859679692231 L26.54601627279424,40.82667262646919 " />
			<path d="M-23.21891556660403,46.735576587155606 L-23.21891556660403,46.30476641584282 " />
			<path d="M27.550605392743343,50.371080147252414 L27.49394551731073,50.40257093686568 L27.436119718173135,50.43189589358597 L27.377199119278213,50.459018948621875 L27.31725619114353,50.48390674145308 L27.256364661720056,50.5065286608628 L27.194599425709047,50.52685688258854 L27.132036452443902,50.5448664035452 L27.068752692450204,50.560535072578006 L27.004825982798963,50.5738436177078 L26.94033495136942,50.584775669834954 L26.87535892013917,50.59331778287285 L26.80997780762061,50.59945945028619 L26.744272030563593,50.60319311801366 L26.67832240504534,50.604514193759215 L26.61221004706916,50.6034210526405 L26.546016272794247,50.59991503918732 " />
			<path d="M26.54601627279424,50.599915039187316 L34.80477689099689,45.8024743786886 " />
			<path d="M-34.80477689099689,46.23424403813349 L-26.546016272794237,41.436803377634774 " />
			<path d="M-36.692493603728934,44.141687648217776 L-28.43373298552628,39.34424698771906 " />
			<path d="M-36.69249360372893,44.14168764821778 L-36.690219766276215,44.23793514887036 L-36.68340373179166,44.33427438959679 L-36.672061920699356,44.43047328072783 L-36.656221656415646,44.52630007070873 L-36.63592109952463,44.62152390440898 L-36.611209155845984,44.71591537927258 L-36.582145358616536,44.809247097968864 L-36.54879972506951,44.901294216212605 L-36.511252587756836,44.99183498443357 L-36.46959440102105,45.08065128199068 L-36.42392552308282,45.16752914264374 L-36.37435597426923,45.25225927001683 L-36.32100517196515,45.334637541811624 L-36.264001642926296,45.41446550155588 L-36.203482713647055,45.49155083670249 L-36.13959417952889,45.56570784192718 L-36.07248995364646,45.636757866509 L-36.002331695957565,45.70452974471547 L-35.9292884238501,45.768860208155886 L-35.85353610496443,45.82959427910913 L-35.77525723327184,45.886585643878604 L-35.694640389430674,45.939697005274716 L-35.611879786478944,45.98880041337587 L-35.52717480195813,46.03377757377099 L-35.44072949759523,46.07452013254115 L-35.352752127700164,46.110929937293655 L-35.26345463746292,46.142919273619725 L-35.17305215235901,46.17041107640622 L-35.081762459893376,46.19333911549222 L-34.9898054849312,46.21164815522333 L-34.89740275987965,46.22529408751913 L-34.804776890996905,46.2342440381335 " />
			<path d="M-36.692493603728934,-43.978574665760824 L-28.43373298552628,-48.77601532625954 " />
			<path d="M-36.69249360372893,-43.97857466576083 L-36.688736529746386,-44.10179354485575 L-36.677480263014054,-44.22398724475514 L-36.658769609647784,-44.344669367507834 L-36.63267904831114,-44.46335953206885 L-36.5993124337494,-44.579585286479414 L-36.55880258339073,-44.69288398848496 L-36.511310748659994,-44.80280464710501 L-36.457025973109594,-44.9089097178247 L-36.396164339922436,-45.01077684426191 L-36.32896811178237,-45.108000539377386 L-36.25570476653581,-45.20019379953551 L-36.17666593248315,-45.28698964499112 L-36.09216622753823,-45.36804258067012 L-36.00254200687642,-45.44302997142945 L-35.90815002405653,-45.51165332632187 L-35.80936601094601,-45.5736394867537 " />
			<path d="M26.54601627279424,50.599915039187316 L26.510264999920505,50.61781367381513 L26.474618484046356,50.62992193831632 L26.439181175216472,50.63620435352169 L26.40405691046512,50.63664251094074 " />
			<path d="M-34.80477689099689,46.23424403813349 L-34.84052816387063,46.2521426727613 L-34.87617467974477,46.264250937262496 L-34.91161198857466,46.270533352467865 L-34.946736253326016,46.27097150988691 " />
			<path d="M-36.69249360372893,44.141687648217776 L-36.71861915026742,44.15795359199265 L-36.74135560497045,44.17442860435512 L-36.760662705411654,44.19108351083711 L-36.77650626197267,44.2078888184084 L-36.78885821838715,44.224814767703826 L-36.797696701423654,44.24183138572206 L-36.80300605961951,44.25890853890276 L-36.80477689099689,44.27601598648804 " />
			<path d="M-36.69249360372893,-43.978574665760824 L-36.718619150307354,-43.96230872195919 L-36.74135560503917,-43.94583370956933 L-36.760662705497836,-43.92917880305946 L-36.77650626206485,-43.91237349545993 L-36.788858218473734,-43.895447546136076 L-36.797696701493024,-43.878430928089365 L-36.80300605966002,-43.86135377488028 L-36.80477689099689,-43.844246327266866 " />
			<path d="M27.550605392743343,50.37108014725242 L35.80936601094599,45.573639486753706 " />
			<path d="M-35.809366010946,-45.57363948675371 L-27.550605392743346,-50.37108014725243 " />
			<path d="M-22.649121320163996,-43.090344278876174 L-26.54601627279424,-40.82667262646919 " />
			<path d="M30.907881938366653,38.292903618377466 L22.819482738616713,42.991382844630955 " />
			<path d="M27.550605383760374,50.37108015247054 L27.44558048148279,50.4279636277199 L27.3373472924832,50.47847636526045 L27.226291829343914,50.5224382119207 L27.112810170259632,50.55969237821576 L26.997307046428546,50.590105997535424 L26.880194398582574,50.613570600011634 L26.761889907804886,50.63000249937515 L26.6428155058745,50.63934309142182 L26.52339587045084,50.64155906302384 L26.404056910465112,50.63664251094073 " />
			<path d="M-34.94673625332602,46.270971509886905 L26.404056910465115,50.63664251094073 " />
			<path d="M-34.946736253326016,46.270971509886905 L-35.07104256341988,46.258212392643586 L-35.194309448626896,46.23771534862891 L-35.31605571034928,46.20956039242929 L-35.435806086067615,46.173857432925935 L-35.55309310462949,46.13074584424209 L-35.66745891112299,46.08039392166638 L-35.778457054211025,46.0229982246762 L-35.885654228949434,45.9587828096259 L-35.98863196828535,45.88799835509495 L-36.08698827663261,45.81092118331058 L-36.18033919914739,45.72785218146502 L-36.26832032057785,45.639115627138075 L-36.35058818783687,45.545057922410436 L-36.42682165074449,45.446046241609174 L-36.49672311570618,45.34246709796438 L-36.56001970743296,45.234724834772294 L-36.61646433416833,45.12324004695492 L-36.6658366522637,45.008447939178 L-36.70794392633684,44.89079662693666 L-36.74262178165558,44.77074538724097 L-36.76973484580969,44.648762865730085 L-36.78917727716593,44.525325247213935 L-36.800873178043524,44.40091439678424 L-36.80477689099689,44.2760159787512 " />
			<path d="M-36.80477689099689,-43.84424632726686 L-36.80477689099689,44.27601598671174 " />
			<path d="M-36.80477689099689,-43.84424631930631 L-36.80100272851976,-43.967056773101575 L-36.78969448441497,-44.089403720260336 L-36.77089483783865,-44.210825403465634 L-36.744674741720665,-44.33086355749745 L-36.71113315497675,-44.449065138800336 L-36.67039666902141,-44.56498403534362 L-36.622619029991306,-44.67818275032092 L-36.56798055848227,-44.78823405333437 L-36.50668746898998,-44.89472259283178 L-36.43897109162287,-44.99724646371109 L-36.365086999024584,-45.0954187241757 L-36.28531404180118,-45.188868856115874 L-36.1999532960935,-45.277244163504484 L-36.109326927266736,-45.360211103529274 L-36.01377697400585,-45.43745654543781 L-35.91366405740584,-45.50868895234395 L-35.80936601992895,-45.57363948153558 " />

       </g>
    </g>
    
</svg>
