<?xml version="1.0" encoding="UTF-8" standalone="no"?>
<svg
   xmlns:svg="http://www.w3.org/2000/svg"
   xmlns="http://www.w3.org/2000/svg"
   width="800.0"
   height="240.0"

>
    <g transform="scale(1.792110523002464, -1.792110523002464)   translate(142.74188657657785,-61.39872795466138)" stroke-width="0.5580012991188853"  fill="none">
       <!-- hidden lines -->
       <g  stroke="rgb(160,160,160)" fill="none" stroke-dasharray="0.5580012991188853,0.5580012991188853" >
			<path d="M-24.150720160270875,-43.17929503632532 L-24.153337645473744,-43.26096128540561 L-24.161178487087522,-43.342637690798654 L-24.174207894660004,-43.423961847648094 L-24.192368055649645,-43.50457291405303 L-24.215578391944522,-43.58411321215286 L-24.243735917393984,-43.662229815173085 L-24.27671569476656,-43.73857611339014 L-24.314371390106636,-43.81281335206687 L-24.35653592203012,-43.88461213453493 L-24.40302220307813,-43.95365388375458 L-24.45362396983929,-44.019632255866924 L-24.50811669815724,-44.082254499466536 L-24.56625859936262,-44.141242754563294 L-24.62779169310904,-44.19633528546972 L-24.692442952052886,-44.247287642143576 L-24.759925513297848,-44.29387374483252 L-24.829939951228937,-44.33588688720844 L-24.902175606088306,-44.37314065354019 L-24.97631196239786,-44.405469745835404 L-25.05202007111252,-44.43273071728108 L-25.1289640091939,-44.454802608728826 L-25.206802370128166,-44.471587485400406 L-25.2851897787745,-44.483010871432306 L-25.363778423822723,-44.48902208033124 L-25.442219601060355,-44.489594439874224 L-25.520165260601598,-44.48472541045539 L-25.59726955121299,-44.474436596354444 L-25.67319035488347,-44.458773649876704 L-25.747590804829827,-44.43780606879011 L-25.82014078020203,-44.41162688795798 L-25.890518370856295,-44.380352266535745 L-25.958411305696583,-44.34412097256333 " />
			<path d="M-25.95841130569659,-44.34412097256333 L-26.006667789701453,-44.31434792876302 L-26.0532954301211,-44.28204269858419 L-26.09818189688566,-44.24728310815595 L-26.1412190545651,-44.21015289637621 L-26.182303222876968,-44.170741513177376 L-26.221335426461252,-44.129143904033604 L-26.258221633320694,-44.08546028122884 L-26.292872981352126,-44.03979588243666 L-26.32520599242304,-43.992260717193474 L-26.355142773477727,-43.94296930187595 L-26.38261120418847,-43.89204038382099 L-26.407545110699747,-43.83959665525306 L-26.429884425046808,-43.78576445770779 L-26.449575329864707,-43.73067347766421 L-26.466570388039017,-43.67445643411866 L-26.480828656986,-43.61724875885306 L-26.492315787286888,-43.55918827016792 L-26.501004105438632,-43.500414840866 L-26.506872680521802,-43.44107006128642 L-26.50990737462499,-43.38129689820117 L-26.5101008769043,-43.32123935039564 L-26.507452721195786,-43.261042101762925 L-26.501969287138504,-43.20085017274762 L-26.49366378480539,-43.14080857097892 L-26.48255622287904,-43.081061941934514 L-26.468673360449042,-43.02175422047694 L-26.452048642546984,-42.96302828410195 L-26.43272211957445,-42.90502560873405 L-26.41074035081808,-42.84788592789864 L-26.386156292284184,-42.79174689609168 L-26.35902916912308,-42.73674375715801 L-26.32942433295052,-42.68300901847702 L-26.29741310440992,-42.63067213174081 L-26.263072601354683,-42.57985918109368 L-26.226485553064546,-42.530692579384436 L-26.187740100943486,-42.48329077326308 L-26.146929586179365,-42.43776795783247 L-26.10415232487683,-42.3942338015423 L-26.059511371205197,-42.35279318198822 L-26.013114269131954,-42.313545933252506 L-25.9650727933399,-42.27658660539501 L-25.91550267995215,-42.2420042366738 L-25.86452334771369,-42.20988213904418 L-25.812257610301142,-42.18029769745291 L-25.75883138045387,-42.15332218341106 L-25.70437336663916,-42.129020583294746 L-25.649014762982254,-42.10745144178722 L-25.592888933208204,-42.08866672083959 L-25.53613108935697,-42.07271167448998 L-25.478877966045797,-42.05962473984254 L-25.421267491063517,-42.04943744446911 L-25.36343845309045,-42.04217433045656 L-25.305530167344298,-42.03785289528271 L-25.247682139957583,-42.0364835496634 L-25.190033731895177,-42.03806959247218 L-25.1327238232215,-42.04260720279301 L-25.075890478526304,-42.050085449125156 L-25.01967061431498,-42.060486315718194 L-24.964199669164678,-42.073784745973505 L-24.909611277440955,-42.089948702807796 L-24.856036947360852,-42.10893924583325 L-24.803605744178086,-42.13071062516834 L-24.752443979253556,-42.15521039165331 L-24.70267490576022,-42.18237952320477 " />
			<path d="M-24.702674905760208,-42.18237952320477 L-24.640934897566122,-42.221120873474675 L-24.581939908303696,-42.264010470282436 L-24.525924770390063,-42.310877589507015 L-24.47311245479949,-42.361535674306396 L-24.42371318351658,-42.41578307771615 L-24.377923592737474,-42.47340386531498 L-24.33592595014993,-42.53416867476215 L-24.29788742940796,-42.597835628785404 L-24.263959444688957,-42.66415129798521 L-24.23427704798225,-42.73285170962274 L-24.208958391508084,-42.80366339837621 L-24.188104257406994,-42.87630449488282 L-24.17179765657159,-42.95048584773345 L-24.160103498217673,-43.02591217445388 L-24.153068331509964,-43.102283236891 L-24.15072016027088,-43.17929503632532 " />
			<path d="M23.04219765803,-39.821086573976224 L23.03958017282713,-39.90275282305651 L23.031739331213352,-39.98442922844956 L23.01870992364087,-40.065753385299 L23.000549762651232,-40.14636445170393 L22.97733942635635,-40.22590474980376 L22.94918190090689,-40.30402135282399 L22.916202123534315,-40.38036765104104 L22.878546428194237,-40.45460488971777 L22.836381896270755,-40.526403672185836 L22.789895615222743,-40.595445421405486 L22.739293848461585,-40.66142379351783 L22.684801120143632,-40.72404603711744 L22.626659218938254,-40.7830342922142 L22.565126125191835,-40.838126823120625 L22.500474866247988,-40.88907917979448 L22.432992305003026,-40.93566528248342 L22.362977867071937,-40.97767842485934 L22.29074221221257,-41.01493219119109 L22.216605855903016,-41.04726128348631 L22.140897747188355,-41.074522254931985 L22.063953809106973,-41.09659414637973 L21.986115448172708,-41.11337902305131 L21.907728039526372,-41.12480240908321 L21.82913939447815,-41.13081361798214 L21.75069821724052,-41.13138597752513 L21.672752557699276,-41.12651694810629 L21.595648267087885,-41.11622813400535 L21.519727463417404,-41.10056518752761 L21.445327013471047,-41.07959760644101 L21.372777038098842,-41.05341842560888 L21.30239944744458,-41.02214380418665 L21.23450651260429,-40.985912510214234 " />
			<path d="M21.234506512604284,-40.985912510214234 L21.18625002859942,-40.95613946641392 L21.139622388179774,-40.923834236235095 L21.094735921415214,-40.88907464580685 L21.051698763735775,-40.85194443402711 L21.010614595423906,-40.81253305082828 L20.971582391839625,-40.77093544168451 L20.93469618498018,-40.72725181887974 L20.900044836948748,-40.68158742008756 L20.867711825877834,-40.63405225484438 L20.837775044823147,-40.58476083952685 L20.810306614112402,-40.533831921471894 L20.785372707601127,-40.481388192903964 L20.763033393254066,-40.427555995358695 L20.743342488436166,-40.372465015315115 L20.726347430261857,-40.31624797176956 L20.712089161314875,-40.25904029650396 L20.700602031013986,-40.200979807818825 L20.69191371286224,-40.1422063785169 L20.68604513777907,-40.08286159893732 L20.683010443675883,-40.023088435852074 L20.682816941396574,-39.963030888046546 L20.685465097105087,-39.90283363941383 L20.69094853116237,-39.842641710398524 L20.699254033495485,-39.78260010862982 L20.710361595421833,-39.72285347958542 L20.72424445785183,-39.663545758127846 L20.74086917575389,-39.604819821752855 L20.760195698726424,-39.54681714638495 L20.782177467482796,-39.48967746554954 L20.80676152601669,-39.433538433742584 L20.833888649177794,-39.37853529480891 L20.863493485350354,-39.324800556127926 L20.895504713890958,-39.27246366939171 L20.92984521694619,-39.221650718744584 L20.966432265236328,-39.17248411703534 L21.005177717357387,-39.12508231091398 L21.04598823212151,-39.07955949548337 L21.088765493424045,-39.0360253391932 L21.133406447095677,-38.99458471963912 L21.17980354916892,-38.95533747090341 L21.227845024960974,-38.91837814304591 L21.277415138348722,-38.8837957743247 L21.328394470587185,-38.851673676695086 L21.380660207999732,-38.82208923510381 L21.434086437847004,-38.795113721061966 L21.488544451661713,-38.77081212094565 L21.543903055318616,-38.74924297943812 L21.60002888509267,-38.73045825849049 L21.656786728943903,-38.71450321214088 L21.714039852255077,-38.70141627749344 L21.771650327237356,-38.691228982120016 L21.829479365210425,-38.683965868107464 L21.887387650956576,-38.679644432933614 L21.94523567834329,-38.678275087314304 L22.002884086405697,-38.679861130123086 L22.060193995079374,-38.68439874044391 L22.11702733977457,-38.69187698677606 L22.173247203985895,-38.7022778533691 L22.228718149136196,-38.71557628362441 L22.28330654085992,-38.7317402404587 L22.33688087094002,-38.75073078348415 L22.38931207412279,-38.772502162819244 L22.440473839047318,-38.797001929304216 L22.490242912540655,-38.824171060855676 " />
			<path d="M22.490242912540666,-38.824171060855676 L22.55198292073475,-38.86291241112558 L22.610977909997178,-38.90580200793334 L22.66699304791081,-38.95266912715792 L22.719805363501383,-39.0033272119573 L22.769204634784295,-39.05757461536705 L22.8149942255634,-39.11519540296588 L22.856991868150942,-39.17596021241305 L22.895030388892913,-39.23962716643631 L22.928958373611916,-39.30594283563611 L22.958640770318624,-39.374643247273646 L22.98395942679279,-39.44545493602711 L23.00481356089388,-39.51809603253372 L23.021120161729286,-39.59227738538435 L23.0328143200832,-39.66770371210478 L23.03984948679091,-39.7440747745419 L23.04219765803,-39.821086573976224 " />
			<path d="M-25.273623275690202,-43.166017427538605 L-20.15265613851565,-42.80161369980804 " />
			<path d="M-17.01486245927726,-47.96345820317589 L-25.27362327569017,-43.166017427538605 " />
			<path d="M29.141626951011048,39.42877729967829 L20.88286613459814,44.22621807531557 " />
			<path d="M20.88286613459814,42.377441201311385 L20.88286613459814,44.22621807531554 " />
			<path d="M-29.14162675280076,-39.42877741481683 L-29.057702065714267,-39.37449017199149 L-28.972247041779134,-39.323072438308174 L-28.8853598705141,-39.27458329376349 L-28.797140387003633,-39.229078453347014 L-28.7076899571854,-39.18661020302364 L-28.617111361378818,-39.14722733965596 L-28.52550867618841,-39.11097511493573 L-28.43298715491774,-39.07789518338872 L-28.339653106631253,-39.048025554512925 L-28.24561377400308,-39.021400549104804 L-28.150977210093043,-38.998050759824075 L-28.055852154191577,-38.97800301604211 L-27.9603479068761,-38.96128035301444 L-27.864574204422492,-38.94790198541283 L-27.76864109271595,-38.9378832852472 L-27.672658800806047,-38.931235764202924 L-27.576737614251396,-38.92796706041362 L-27.480987748399347,-38.92808092968483 L-27.385519221746353,-38.931577241178495 L-27.290441729524552,-38.93845197756332 L-27.195864517659754,-38.94869723963072 L-27.101896257245702,-38.96230125537123 L-27.008644919678847,-38.979248393500725 L-26.916217652597055,-38.9995191814211 L-26.82472065676484,-39.02309032759467 L-26.734259064046586,-39.04993474830661 L-26.64493681660796,-39.08002159878466 L-26.55685654748427,-39.11331630864042 L-26.4701194626531,-39.149780621591376 L-26.384825224746606,-39.189372639418146 L-26.301071838537208,-39.23204687010636 L-26.218955538328142,-39.277754280117875 " />
			<path d="M-26.21895553832812,-39.27775428011789 L-26.1058651031712,-39.347429131246415 L-25.996492935310105,-39.42289817947484 L-25.89109007267874,-39.503988203458924 L-25.789898442609992,-39.590513080234466 L-25.69315030654878,-39.6822742124186 L-25.601067726950856,-39.779060984043035 L-25.513862057590973,-39.88065124397324 L-25.43173345845032,-39.98681181580376 L-25.354870436296622,-40.09729903305952 L-25.283449412011468,-40.21185929847454 L-25.21763431565791,-40.33022966606449 L-25.157576210217805,-40.45213844465695 L-25.103412944862455,-40.57730582149425 L-25.05526883855248,-40.705444504477406 L-25.01325439469303,-40.836260381577205 L-24.977466047499377,-40.96945319589876 L-24.947985940655002,-41.10471723485017 L-24.924881738770175,-41.241742031833446 L-24.90820647207388,-41.38021307884714 L-24.897998414695454,-41.51981254836504 L-24.89428099681539,-41.660220022834054 L-24.897062750886885,-41.80111323011689 L-24.906337292051635,-41.942168783191526 L-24.92208333279475,-42.08306292240958 L-24.944264731805205,-42.22347225860998 L-24.972830576929695,-42.36307451538228 L-25.007715302029396,-42.501549268775904 L-25.048838837471564,-42.638578682757526 L-25.0961067939104,-42.773848238728455 L-25.14941067893549,-42.9070474574277 L-25.20862814609043,-43.03787061156363 L-25.2736232756902,-43.166017427538634 " />
			<path d="M-20.88286593638788,-44.22621819045415 L-29.14162675280079,-39.428777414816864 " />
			<path d="M20.882866134598107,44.22621807531555 L20.79894144751161,44.17193083249022 L20.713486423576473,44.120513098806896 L20.626599252311443,44.072023954262214 L20.538379768800972,44.026519113845744 L20.44892933898274,43.98405086352237 L20.358350743176157,43.94466800015469 L20.266748057985748,43.908415775434456 L20.17422653671508,43.87533584388745 L20.080892488428592,43.84546621501165 L19.986853155800418,43.818841209603534 L19.89221659189038,43.795491420322804 L19.797091535988915,43.77544367654083 L19.701587288673434,43.75872101351317 L19.60581358621983,43.745342645911556 L19.509880474513285,43.73532394574593 L19.413898182603383,43.72867642470165 L19.31797699604873,43.72540772091235 L19.222227130196682,43.72552159018356 L19.12675860354369,43.72901790167723 L19.031681111321888,43.73589263806205 L18.937103899457085,43.746137900129455 L18.843135639043034,43.75974191586997 L18.749884301476182,43.77668905399946 L18.657457034394387,43.796959841919836 L18.56596003856217,43.82053098809341 L18.47549844584392,43.84737540880535 L18.386176198405295,43.8774622592834 L18.298095929281605,43.91075696913916 L18.21135884445043,43.94722128209011 L18.12606460654394,43.98681329991688 L18.04231122033454,44.029487530605095 L17.960194920125463,44.075194940616626 " />
			<path d="M17.960194920125453,44.07519494061663 L17.847104484968533,44.14486979174516 L17.73773231710744,44.220338839973586 L17.632329454476075,44.30142886395767 L17.53113782440733,44.38795374073321 L17.43438968834612,44.47971487291734 L17.34230710874819,44.57650164454178 L17.255101439388312,44.678091904471984 L17.17297284024766,44.784252476302505 L17.09610981809396,44.894739693558265 L17.024688793808807,45.00929995897329 L16.958873697455253,45.12767032656323 L16.898815592015147,45.249579105155696 L16.844652326659798,45.37474648199299 L16.79650822034982,45.50288516497614 L16.75449377649037,45.63370104207594 L16.71870542929672,45.766893856397495 L16.689225322452344,45.90215789534891 L16.666121120567517,46.03918269233219 L16.649445853871224,46.177653739345885 L16.639237796492797,46.31725320886378 L16.635520378612732,46.45766068333279 L16.638302132684228,46.598553890615634 L16.647576673848977,46.73960944369027 L16.66332271459209,46.88050358290832 L16.68550411360255,47.02091291910872 L16.714069958727038,47.16051517588102 L16.748954683826742,47.29898992927464 L16.790078219268906,47.43601934325626 L16.837346175707747,47.57128889922719 L16.89065006073283,47.70448811792644 L16.949867527887772,47.83531127206236 L17.014862657487534,47.96345808803735 " />
			<path d="M25.27362347390043,43.16601731240003 L17.01486265748752,47.963458088037314 " />
			<path d="M-20.88286593638788,35.86907632958824 L-29.14162675280079,40.66651710522552 " />
			<path d="M-29.14162675280079,-39.42877741481683 L-29.14162675280079,40.666517105225495 " />
			<path d="M-25.273623275690202,44.954244886439994 L17.014862657487576,47.963458088037314 " />
			<path d="M-17.01486245927726,40.15680411080271 L-25.27362327569017,44.954244886439994 " />
			<path d="M-17.63835303458995,45.22830795782073 L-22.357644816420038,44.89248711158582 " />
			<path d="M-22.35764481642004,44.89248711158582 L-21.366593542235723,44.316794232325975 " />
			<path d="M-21.366593542235723,44.31679423232598 L-16.647301760405636,44.65261507856089 " />
			<path d="M-16.647301760405632,44.65261507856089 L-17.63835303458995,45.22830795782074 " />
			<path d="M-25.273623275690206,44.95424488644002 L-25.21777637933231,44.85296171891161 L-25.16612567311188,44.74909885336537 L-25.118757572799943,44.642830060699424 L-25.075751329024634,44.5343331371208 L-25.037178894678508,44.42378960667807 L-25.0031048045356,44.311384417557164 L-24.97358606727958,44.19730563264815 L-24.948672070123646,44.08174411490101 L-24.928404496181766,43.96489320799655 L-24.912817254729482,43.84694841286703 L-24.90193642447098,43.728107060607336 L-24.89578020990732,43.6085679823243 L-24.894358910878857,43.48853117647633 L-24.897674905332778,43.3681974742599 L-24.905722645344603,43.24776820360295 L-24.9184886664003,43.12744485232705 L-24.93595160992352,43.00742873104216 L-24.95808225901019,42.887920636337846 L-24.984843587310728,42.76912051483449 L-25.016190820978107,42.65122712865657 L-25.052071513578092,42.534437722887695 L-25.09242563383631,42.41894769556376 L-25.137185666075407,42.30495027075639 L-25.18627672317416,42.19263617529359 L-25.23961667185966,42.082193319658444 L-25.297116270122842,41.97380648359983 L-25.35867931652752,41.86765700698111 L-25.424202811163113,41.763922486384 L-25.493577127971726,41.66277647797521 L-25.566686198161356,41.564388207133135 L-25.64340770439828,41.46892228532019 L-25.723613285453734,41.37653843467466 L-25.807168750962557,41.287391220782744 L-25.893934305934433,41.20162979407797 L-25.983764784642087,41.11939764030053 L-26.076509893495206,41.040832340434164 L-26.172014462493657,40.96606534052216 L-26.27011870483931,40.89522173174752 L-26.370658484272187,40.828420041145485 L-26.47346558968357,40.76577203329823 L-26.578368016546662,40.70738252334378 L-26.685190254693943,40.65334920161192 L-26.79375358195976,40.603762470180364 L-26.90387636319682,40.55870529162493 L-27.01537435416635,40.51825305021643 L-27.128061009793495,40.482473425796776 L-27.241747796272147,40.451426280545164 L-27.35624450649713,40.42516355882387 L-27.47135957829594,40.403729200271144 L-27.58690041492759,40.387159066286706 L-27.70267370731241,40.37548088003271 L-27.818485757453626,40.36871418005071 L-27.93414280250963,40.36687028757209 L-28.049451338974738,40.369952287576744 L-28.164218446426077,40.37795502363166 L-28.27825211029491,40.390865106518035 L-28.391361543122393,40.40866093663253 L-28.503357503762274,40.43131274012512 L-28.61405261399652,40.458782618713144 L-28.723261672034095,40.491024613088165 L-28.830801962368362,40.52798477980955 L-28.936493561474812,40.569601281556224 L-29.040159638837515,40.615804490585425 L-29.141626752800754,40.666517105225495 " />
			<path d="M-24.150720160270875,42.003625200520666 L-24.153337645473744,41.92195895144038 L-24.161178487087522,41.840282546047334 L-24.174207894660004,41.75895838919789 L-24.192368055649645,41.67834732279296 L-24.215578391944522,41.59880702469313 L-24.243735917393984,41.5206904216729 L-24.27671569476656,41.44434412345585 L-24.314371390106636,41.37010688477912 L-24.35653592203012,41.298308102311054 L-24.40302220307813,41.229266353091404 L-24.45362396983929,41.163287980979064 L-24.50811669815724,41.10066573737945 L-24.56625859936262,41.041677482282694 L-24.62779169310904,40.986584951376265 L-24.692442952052886,40.93563259470241 L-24.759925513297848,40.88904649201347 L-24.829939951228937,40.84703334963755 L-24.902175606088306,40.8097795833058 L-24.97631196239786,40.77745049101058 L-25.05202007111252,40.750189519564906 L-25.1289640091939,40.72811762811716 L-25.206802370128166,40.71133275144558 L-25.2851897787745,40.69990936541368 L-25.363778423822723,40.69389815651475 L-25.442219601060355,40.69332579697176 L-25.520165260601598,40.6981948263906 L-25.59726955121299,40.708483640491544 L-25.67319035488347,40.72414658696928 L-25.747590804829827,40.74511416805588 L-25.82014078020203,40.77129334888801 L-25.890518370856295,40.80256797031024 L-25.958411305696583,40.838799264282656 " />
			<path d="M-25.95841130569659,40.838799264282656 L-26.006667789701453,40.86857230808297 L-26.0532954301211,40.900877538261796 L-26.09818189688566,40.93563712869004 L-26.1412190545651,40.97276734046978 L-26.182303222876968,41.01217872366861 L-26.221335426461252,41.05377633281238 L-26.258221633320694,41.09745995561715 L-26.292872981352126,41.14312435440933 L-26.32520599242304,41.19065951965251 L-26.355142773477727,41.23995093497004 L-26.38261120418847,41.290879853025 L-26.407545110699747,41.34332358159293 L-26.429884425046808,41.397155779138195 L-26.449575329864707,41.452246759181776 L-26.466570388039017,41.50846380272733 L-26.480828656986,41.56567147799293 L-26.492315787286888,41.623731966678065 L-26.501004105438632,41.68250539597999 L-26.506872680521802,41.74185017555957 L-26.50990737462499,41.801623338644816 L-26.5101008769043,41.861680886450344 L-26.507452721195786,41.92187813508306 L-26.501969287138504,41.982070064098366 L-26.49366378480539,42.04211166586707 L-26.48255622287904,42.10185829491147 L-26.468673360449042,42.161166016369044 L-26.452048642546984,42.219891952744035 L-26.43272211957445,42.27789462811194 L-26.41074035081808,42.33503430894735 L-26.386156292284184,42.39117334075431 L-26.35902916912308,42.44617647968798 L-26.32942433295052,42.499911218368965 L-26.29741310440992,42.55224810510518 L-26.263072601354683,42.603061055752306 L-26.226485553064546,42.65222765746155 L-26.187740100943486,42.69962946358291 L-26.146929586179365,42.74515227901352 L-26.10415232487683,42.78868643530369 L-26.059511371205197,42.83012705485777 L-26.013114269131954,42.86937430359348 L-25.9650727933399,42.90633363145098 L-25.91550267995215,42.94091600017219 L-25.86452334771369,42.973038097801805 L-25.812257610301142,43.00262253939308 L-25.75883138045387,43.029598053434924 L-25.70437336663916,43.05389965355124 L-25.649014762982254,43.07546879505877 L-25.592888933208204,43.0942535160064 L-25.53613108935697,43.11020856235601 L-25.478877966045797,43.12329549700345 L-25.421267491063517,43.133482792376874 L-25.36343845309045,43.14074590638943 L-25.305530167344298,43.145067341563276 L-25.247682139957583,43.146436687182586 L-25.190033731895177,43.144850644373804 L-25.1327238232215,43.14031303405298 L-25.075890478526304,43.13283478772083 L-25.01967061431498,43.122433921127794 L-24.964199669164678,43.10913549087248 L-24.909611277440955,43.09297153403819 L-24.856036947360852,43.07398099101274 L-24.803605744178086,43.05220961167765 L-24.752443979253556,43.027709845192675 L-24.70267490576022,43.000540713641215 " />
			<path d="M-24.702674905760208,43.000540713641215 L-24.640934897566122,42.96179936337131 L-24.581939908303696,42.91890976656355 L-24.525924770390063,42.87204264733897 L-24.47311245479949,42.82138456253959 L-24.42371318351658,42.76713715912984 L-24.377923592737474,42.70951637153101 L-24.33592595014993,42.64875156208384 L-24.29788742940796,42.58508460806058 L-24.263959444688957,42.51876893886078 L-24.23427704798225,42.450068527223245 L-24.208958391508084,42.37925683846978 L-24.188104257406994,42.30661574196317 L-24.17179765657159,42.23243438911254 L-24.160103498217673,42.15700806239211 L-24.153068331509964,42.08063699995499 L-24.15072016027088,42.003625200520666 " />
			<path d="M23.04219765803,45.36183366286976 L23.03958017282713,45.28016741378948 L23.031739331213352,45.19849100839643 L23.01870992364087,45.11716685154699 L23.000549762651232,45.036555785142056 L22.97733942635635,44.95701548704223 L22.94918190090689,44.878898884022 L22.916202123534315,44.802552585804946 L22.878546428194237,44.728315347128216 L22.836381896270755,44.65651656466015 L22.789895615222743,44.5874748154405 L22.739293848461585,44.52149644332816 L22.684801120143632,44.45887419972855 L22.626659218938254,44.39988594463179 L22.565126125191835,44.34479341372536 L22.500474866247988,44.29384105705151 L22.432992305003026,44.24725495436257 L22.362977867071937,44.205241811986646 L22.29074221221257,44.167988045654894 L22.216605855903016,44.13565895335968 L22.140897747188355,44.108397981914 L22.063953809106973,44.08632609046626 L21.986115448172708,44.06954121379468 L21.907728039526372,44.05811782776278 L21.82913939447815,44.052106618863846 L21.75069821724052,44.05153425932086 L21.672752557699276,44.056403288739695 L21.595648267087885,44.06669210284064 L21.519727463417404,44.08235504931838 L21.445327013471047,44.103322630404975 L21.372777038098842,44.129501811237105 L21.30239944744458,44.16077643265934 L21.23450651260429,44.19700772663175 " />
			<path d="M21.234506512604284,44.19700772663175 L21.18625002859942,44.226780770432065 L21.139622388179774,44.25908600061089 L21.094735921415214,44.29384559103914 L21.051698763735775,44.33097580281888 L21.010614595423906,44.37038718601771 L20.971582391839625,44.41198479516148 L20.93469618498018,44.455668417966244 L20.900044836948748,44.50133281675843 L20.867711825877834,44.54886798200161 L20.837775044823147,44.59815939731914 L20.810306614112402,44.649088315374094 L20.785372707601127,44.701532043942024 L20.763033393254066,44.75536424148729 L20.743342488436166,44.81045522153087 L20.726347430261857,44.866672265076424 L20.712089161314875,44.923879940342026 L20.700602031013986,44.98194042902716 L20.69191371286224,45.040713858329084 L20.68604513777907,45.10005863790867 L20.683010443675883,45.15983180099391 L20.682816941396574,45.21988934879944 L20.685465097105087,45.28008659743216 L20.69094853116237,45.34027852644746 L20.699254033495485,45.400320128216165 L20.710361595421833,45.46006675726057 L20.72424445785183,45.51937447871814 L20.74086917575389,45.57810041509313 L20.760195698726424,45.636103090461035 L20.782177467482796,45.69324277129645 L20.80676152601669,45.749381803103404 L20.833888649177794,45.804384942037075 L20.863493485350354,45.85811968071806 L20.895504713890958,45.910456567454276 L20.92984521694619,45.9612695181014 L20.966432265236328,46.01043611981065 L21.005177717357387,46.057837925932006 L21.04598823212151,46.103360741362614 L21.088765493424045,46.146894897652786 L21.133406447095677,46.188335517206866 L21.17980354916892,46.22758276594258 L21.227845024960974,46.264542093800074 L21.277415138348722,46.299124462521284 L21.328394470587185,46.3312465601509 L21.380660207999732,46.36083100174218 L21.434086437847004,46.38780651578402 L21.488544451661713,46.41210811590034 L21.543903055318616,46.433677257407865 L21.60002888509267,46.452461978355494 L21.656786728943903,46.468417024705104 L21.714039852255077,46.481503959352544 L21.771650327237356,46.49169125472597 L21.829479365210425,46.498954368738524 L21.887387650956576,46.50327580391237 L21.94523567834329,46.50464514953168 L22.002884086405697,46.5030591067229 L22.060193995079374,46.49852149640208 L22.11702733977457,46.49104325006993 L22.173247203985895,46.48064238347689 L22.228718149136196,46.46734395322158 L22.28330654085992,46.45117999638729 L22.33688087094002,46.432189453361836 L22.38931207412279,46.410418074026744 L22.440473839047318,46.38591830754177 L22.490242912540655,46.35874917599031 " />
			<path d="M22.490242912540666,46.35874917599031 L22.55198292073475,46.32000782572041 L22.610977909997178,46.27711822891265 L22.66699304791081,46.23025110968807 L22.719805363501383,46.17959302488869 L22.769204634784295,46.125345621478935 L22.8149942255634,46.067724833880106 L22.856991868150942,46.006960024432935 L22.895030388892913,45.94329307040968 L22.928958373611916,45.87697740120988 L22.958640770318624,45.80827698957234 L22.98395942679279,45.737465300818876 L23.00481356089388,45.66482420431227 L23.021120161729286,45.59064285146164 L23.0328143200832,45.515216524741206 L23.03984948679091,45.43884546230409 L23.04219765803,45.36183366286976 " />
			<path d="M-17.63835303458995,46.54032075227331 L-17.63835303458995,45.22830795782074 " />
			<path d="M-22.35764481642004,46.85071516300758 L-22.35764481642004,44.89248711158583 " />
			<path d="M-21.366593542235723,46.27502228374773 L-21.366593542235723,44.31679423232598 " />
			<path d="M-16.647301760405632,46.61084312998264 L-16.647301760405632,44.65261507856089 " />
			<path d="M-18.839210400080887,-45.58841395516761 L-24.702674905760208,-42.182379523204766 " />
			<path d="M-20.09494680001727,-47.75015540452617 L-25.95841130569659,-44.344120972563324 " />
			<path d="M28.353707418219987,-42.23020549281851 L22.490242912540666,-38.82417106085567 " />
			<path d="M27.097971018283605,-44.39194694217707 L21.234506512604284,-40.98591251021423 " />
			<path d="M-20.88286613459814,-42.37744120131139 L-26.21895553832811,-39.27775428011792 " />
			<path d="M20.15265613851565,42.80161369980804 L17.960194920125453,44.075194940616626 " />
			<path d="M-18.839210400080887,39.59450628167837 L-24.702674905760208,43.000540713641215 " />
			<path d="M-20.09494680001727,37.43276483231981 L-25.95841130569659,40.838799264282656 " />
			<path d="M28.353707418219987,42.95271474402747 L22.490242912540666,46.35874917599031 " />
			<path d="M27.097971018283605,40.79097329466891 L21.234506512604284,44.19700772663175 " />

       </g>

       <!-- solid lines -->
       <g  stroke="rgb(0,0,0)" fill="none">
			<path d="M-20.88286613459814,41.83978839311667 L29.14162675280079,45.39948936320671 " />
			<path d="M31.029343465532826,43.575589650278935 L31.025586391550288,43.698808529373856 L31.01433012481795,43.82100222927325 L30.995619471451683,43.941684352025945 L30.969528910115034,44.060374516586954 L30.93616229555329,44.17660027099752 L30.895652445194628,44.28989897300307 L30.848160610463896,44.39981963162312 L30.79387583491349,44.5059247023428 L30.733014201726334,44.607791828780016 L30.66581797358627,44.70501552389549 L30.592554628339702,44.797208784053616 L30.513515794287045,44.88400462950922 L30.429016089342127,44.965057565188225 L30.339391868680316,45.04004495594755 L30.244999885860434,45.108668310839974 L30.1462158727499,45.17065447127181 " />
			<path d="M30.14621587274989,45.17065447127182 L30.08955599731728,45.202145260885075 L30.031730198179684,45.23147021760536 L29.972809599284762,45.25859327264127 L29.91286667115008,45.28348106547248 L29.851975141726605,45.30610298488219 L29.790209905715596,45.326431206607936 L29.72764693245045,45.344440727564596 L29.664363172456753,45.3601093965974 L29.60043646280551,45.3734179417272 L29.535945431375968,45.38434999385435 L29.47096940014572,45.39289210689225 L29.405588287627157,45.399033774305586 L29.339882510570142,45.40276744203305 L29.273932885051888,45.40408851777861 L29.207820527075707,45.402995376659895 L29.141626752800796,45.39948936320672 " />
			<path d="M-22.770582847330175,39.747232003200956 L-22.76830900987746,39.84347950385354 L-22.76149297539291,39.939818744579966 L-22.750151164300604,40.036017635711005 L-22.73431090001689,40.1318444256919 L-22.714010343125878,40.227068259392155 L-22.68929839944723,40.321459734255754 L-22.660234602217788,40.41479145295204 L-22.626888968670755,40.50683857119578 L-22.58934183135808,40.59737933941674 L-22.547683644622296,40.686195636973856 L-22.50201476668407,40.77307349762691 L-22.45244521787048,40.857803625 L-22.399094415566395,40.9401818967948 L-22.342090886527544,41.020009856539055 L-22.281571957248303,41.09709519168566 L-22.21768342313014,41.17125219691035 L-22.150579197247712,41.242302221492174 L-22.080420939558813,41.310074099698646 L-22.007377667451355,41.37440456313906 L-21.93162534856567,41.435138634092304 L-21.853346476873085,41.49212999886178 L-21.77272963303192,41.54524136025789 L-21.68996903008019,41.59434476835904 L-21.605264045559377,41.639321928754164 L-21.51881874119648,41.68006448752433 L-21.430841371301412,41.71647429227683 L-21.34154388106417,41.7484636286029 L-21.251141395960257,41.77595543138939 L-21.159851703494624,41.7988834704754 L-21.06789472853245,41.8171925102065 L-20.9754920034809,41.830838442502305 L-20.882866134598157,41.83978839311667 " />
			<path d="M31.029343465532826,-44.544672663699664 L31.029343465532826,43.575589650278935 " />
			<path d="M-22.770582847330168,-48.373030310777644 L-22.770582847330168,39.747232003200956 " />
			<path d="M31.029343465532826,-44.544672663699664 L31.02706962808011,-44.640920164352245 L31.02025359359556,-44.737259405078674 L31.008911782503255,-44.83345829620971 L30.993071518219544,-44.92928508619061 L30.97277096132853,-45.02450891989086 L30.948059017649886,-45.11890039475446 L30.918995220420438,-45.212232113450746 L30.885649586873406,-45.30427923169449 L30.84810244956073,-45.39481999991545 L30.806444262824947,-45.483636297472565 L30.76077538488672,-45.57051415812562 L30.71120583607313,-45.65524428549871 L30.657855033769046,-45.737622557293506 L30.600851504730194,-45.81745051703776 L30.540332575450954,-45.89453585218437 L30.47644404133279,-45.96869285740906 L30.409339815450362,-46.039742881990875 L30.339181557761467,-46.107514760197354 L30.266138285654005,-46.17184522363777 L30.190385966768325,-46.23257929459101 L30.112107095075736,-46.289570659360486 L30.03149025123457,-46.3426820207566 L29.94872964828284,-46.39178542885775 L29.864024663762027,-46.43676258925287 L29.777579359399127,-46.477505148023035 L29.689601989504062,-46.51391495277554 L29.600304499266816,-46.54590428910161 L29.509902014162908,-46.5733960918881 L29.418612321697278,-46.596324130974104 L29.3266553467351,-46.61463317070521 L29.23425262168355,-46.62827910300101 L29.141626752800796,-46.63722905361538 " />
			<path d="M-22.770582847330175,-48.373030310777644 L-22.766825773347637,-48.496249189872565 L-22.7555695066153,-48.618442889771956 L-22.736858853249032,-48.739125012524646 L-22.710768291912384,-48.85781517708566 L-22.67740167735064,-48.974040931496226 L-22.636891826991977,-49.08733963350177 L-22.589399992261242,-49.197260292121825 L-22.53511521671084,-49.30336536284151 L-22.474253583523684,-49.405232489278724 L-22.40705735538362,-49.5024561843942 L-22.333794010137055,-49.594649444552324 L-22.254755176084394,-49.68144529000793 L-22.170255471139473,-49.76249822568693 L-22.080631250477666,-49.837485616446266 L-21.986239267657783,-49.90610897133868 L-21.887455254547255,-49.96809513177051 " />
			<path d="M-21.88745525454724,-49.968095131770525 L-21.83079537911463,-49.99958592138378 L-21.772969579977033,-50.02891087810407 L-21.71404898108211,-50.05603393313998 L-21.65410605294743,-50.08092172597119 L-21.593214523523955,-50.1035436453809 L-21.531449287512945,-50.123871867106644 L-21.4688863142478,-50.141881388063304 L-21.405602554254102,-50.15755005709611 L-21.34167584460286,-50.170858602225906 L-21.277184813173317,-50.18179065435306 L-21.212208781943072,-50.190332767390956 L-21.146827669424507,-50.196474434804294 L-21.08112189236749,-50.20020810253176 L-21.015172266849238,-50.20152917827732 L-20.949059908873053,-50.2004360371586 L-20.88286613459814,-50.19693002370543 " />
			<path d="M-20.88286613459814,-50.19693002370543 L29.14162675280079,-46.637229053615386 " />
			<path d="M-18.287255654591554,-46.58532946828816 L-18.289873139794423,-46.666995717368444 L-18.2977139814082,-46.74867212276149 L-18.310743388980683,-46.82999627961093 L-18.32890354997032,-46.910607346015865 L-18.3521138862652,-46.990147644115694 L-18.380271411714663,-47.06826424713592 L-18.413251189087237,-47.144610545352975 L-18.450906884427315,-47.218847784029705 L-18.493071416350798,-47.29064656649777 L-18.53955769739881,-47.35968831571742 L-18.590159464159967,-47.42566668782976 L-18.64465219247792,-47.48828893142937 L-18.7027940936833,-47.54727718652613 L-18.764327187429718,-47.60236971743256 L-18.828978446373565,-47.65332207410641 L-18.896461007618527,-47.699908176795354 L-18.966475445549616,-47.741921319171276 L-19.03871110040898,-47.77917508550303 L-19.112847456718537,-47.81150417779824 L-19.188555565433198,-47.83876514924392 L-19.26549950351458,-47.86083704069166 L-19.343337864448845,-47.87762191736324 L-19.42172527309518,-47.88904530339514 L-19.5003139181434,-47.895056512294076 L-19.578755095381034,-47.89562887183706 L-19.656700754922277,-47.89075984241823 L-19.733805045533668,-47.88047102831728 L-19.80972584920415,-47.86480808183954 L-19.884126299150505,-47.84384050075295 L-19.95667627452271,-47.817661319920816 L-20.027053865176974,-47.78638669849858 L-20.09494680001726,-47.75015540452617 " />
			<path d="M-20.09494680001727,-47.75015540452617 L-20.143203284022132,-47.72038236072586 L-20.18983092444178,-47.68807713054703 L-20.23471739120634,-47.653317540118785 L-20.277754548885778,-47.616187328339045 L-20.318838717197647,-47.57677594514021 L-20.357870920781927,-47.53517833599644 L-20.394757127641373,-47.49149471319168 L-20.429408475672805,-47.445830314399494 L-20.46174148674372,-47.39829514915631 L-20.491678267798406,-47.349003733838785 L-20.51914669850915,-47.29807481578383 L-20.544080605020426,-47.2456310872159 L-20.566419919367487,-47.19179888967063 L-20.586110824185386,-47.13670790962705 L-20.603105882359696,-47.0804908660815 L-20.617364151306678,-47.023283190815896 L-20.628851281607567,-46.96522270213076 L-20.63753959975931,-46.90644927282884 L-20.64340817484248,-46.847104493249255 L-20.64644286894567,-46.78733133016401 L-20.64663637122498,-46.72727378235848 L-20.643988215516465,-46.66707653372576 L-20.638504781459183,-46.60688460471046 L-20.630199279126067,-46.546843002941756 L-20.61909171719972,-46.48709637389735 L-20.60520885476972,-46.42778865243978 L-20.588584136867663,-46.36906271606479 L-20.56925761389513,-46.31106004069689 L-20.547275845138756,-46.253920359861475 L-20.522691786604863,-46.19778132805452 L-20.49556466344376,-46.14277818912085 L-20.4659598272712,-46.08904345043986 L-20.433948598730595,-46.036706563703646 L-20.39960809567536,-45.98589361305652 L-20.363021047385224,-45.93672701134727 L-20.324275595264165,-45.889325205225916 L-20.283465080500044,-45.84380238979531 L-20.240687819197507,-45.800268233505136 L-20.196046865525876,-45.758827613951055 L-20.149649763452633,-45.71958036521534 L-20.10160828766058,-45.68262103735785 L-20.05203817427283,-45.64803866863664 L-20.001058842034368,-45.61591657100702 L-19.94879310462182,-45.586332129415744 L-19.89536687477455,-45.5593566153739 L-19.84090886095984,-45.53505501525758 L-19.785550257302937,-45.51348587375006 L-19.729424427528883,-45.49470115280243 L-19.67266658367765,-45.47874610645282 L-19.615413460366476,-45.46565917180538 L-19.557802985384196,-45.45547187643195 L-19.499973947411128,-45.4482087624194 L-19.442065661664977,-45.44388732724555 L-19.38421763427826,-45.44251798162624 L-19.326569226215856,-45.44410402443502 L-19.26925931754218,-45.448641634755845 L-19.212425972846983,-45.45611988108799 L-19.156206108635658,-45.46652074768103 L-19.100735163485357,-45.47981917793634 L-19.046146771761634,-45.49598313477063 L-18.99257244168153,-45.514973677796085 L-18.940141238498764,-45.53674505713118 L-18.888979473574235,-45.56124482361615 L-18.839210400080898,-45.58841395516761 " />
			<path d="M-18.839210400080887,-45.58841395516761 L-18.7774703918868,-45.62715530543751 L-18.718475402624374,-45.67004490224527 L-18.66246026471074,-45.71691202146985 L-18.60964794912017,-45.76757010626923 L-18.560248677837258,-45.821817509678986 L-18.514459087058153,-45.879438297277815 L-18.47246144447061,-45.94020310672499 L-18.43442292372864,-46.00387006074824 L-18.400494939009636,-46.070185729948044 L-18.37081254230293,-46.13888614158558 L-18.345493885828763,-46.209697830339046 L-18.324639751727673,-46.282338926845654 L-18.308333150892267,-46.356520279696284 L-18.29663899253835,-46.431946606416716 L-18.289603825830643,-46.508317668853834 L-18.287255654591554,-46.58532946828816 " />
			<path d="M28.905662163709323,-43.22712100593906 L28.903044678506454,-43.30878725501935 L28.895203836892676,-43.390463660412394 L28.882174429320195,-43.471787817261834 L28.864014268330557,-43.55239888366677 L28.840803932035676,-43.6319391817666 L28.812646406586214,-43.710055784786825 L28.77966662921364,-43.78640208300388 L28.742010933873562,-43.86063932168061 L28.69984640195008,-43.93243810414867 L28.653360120902068,-44.00147985336832 L28.60275835414091,-44.067458225480664 L28.548265625822957,-44.130080469080276 L28.49012372461758,-44.189068724177034 L28.42859063087116,-44.24416125508346 L28.363939371927312,-44.295113611757316 L28.29645681068235,-44.34169971444626 L28.22644237275126,-44.38371285682218 L28.154206717891896,-44.42096662315393 L28.08007036158234,-44.453295715449144 L28.00436225286768,-44.48055668689482 L27.927418314786298,-44.502628578342566 L27.849579953852032,-44.519413455014146 L27.771192545205697,-44.530836841046046 L27.692603900157476,-44.53684804994498 L27.614162722919843,-44.537420409487964 L27.5362170633786,-44.53255138006913 L27.45911277276721,-44.522262565968184 L27.38319196909673,-44.506599619490444 L27.308791519150372,-44.48563203840385 L27.236241543778167,-44.45945285757172 L27.165863953123903,-44.428178236149485 L27.097971018283616,-44.39194694217707 " />
			<path d="M27.09797101828361,-44.39194694217707 L27.049714534278746,-44.36217389837676 L27.0030868938591,-44.32986866819793 L26.95820042709454,-44.29510907776969 L26.9151632694151,-44.25797886598995 L26.87407910110323,-44.218567482791116 L26.83504689751895,-44.176969873647344 L26.798160690659504,-44.13328625084258 L26.763509342628073,-44.0876218520504 L26.731176331557158,-44.040086686807214 L26.70123955050247,-43.99079527148969 L26.673771119791727,-43.93986635343473 L26.64883721328045,-43.8874226248668 L26.62649789893339,-43.83359042732153 L26.60680699411549,-43.77849944727795 L26.58981193594118,-43.7222824037324 L26.5755536669942,-43.6650747284668 L26.56406653669331,-43.60701423978166 L26.555378218541566,-43.54824081047974 L26.549509643458396,-43.48889603090016 L26.546474949355208,-43.42912286781491 L26.5462814470759,-43.36906532000938 L26.548929602784412,-43.308868071376665 L26.554413036841694,-43.24867614236136 L26.56271853917481,-43.18863454059266 L26.573826101101158,-43.128887911548254 L26.587708963531156,-43.06958019009068 L26.604333681433214,-43.01085425371569 L26.62366020440575,-42.95285157834779 L26.64564197316212,-42.89571189751238 L26.670226031696014,-42.83957286570542 L26.69735315485712,-42.78456972677175 L26.72695799102968,-42.73083498809076 L26.758969219570282,-42.67849810135455 L26.793309722625516,-42.62768515070742 L26.829896770915653,-42.578518548998176 L26.868642223036712,-42.53111674287682 L26.909452737800834,-42.48559392744621 L26.95222999910337,-42.44205977115604 L26.996870952775,-42.40061915160196 L27.043268054848244,-42.361371902866246 L27.0913095306403,-42.32441257500875 L27.140879644028047,-42.28983020628754 L27.19185897626651,-42.25770810865792 L27.244124713679057,-42.22812366706665 L27.29755094352633,-42.2011481530248 L27.352008957341038,-42.176846552908486 L27.40736756099794,-42.15527741140096 L27.463493390771994,-42.13649269045333 L27.520251234623228,-42.12053764410372 L27.5775043579344,-42.10745070945628 L27.63511483291668,-42.09726341408285 L27.69294387088975,-42.0900003000703 L27.7508521566359,-42.08567886489645 L27.808700184022616,-42.08430951927714 L27.86634859208502,-42.08589556208592 L27.923658500758698,-42.09043317240675 L27.980491845453894,-42.097911418738896 L28.03671170966522,-42.108312285331934 L28.09218265481552,-42.121610715587245 L28.146771046539243,-42.137774672421536 L28.200345376619346,-42.15676521544699 L28.252776579802113,-42.17853659478208 L28.303938344726642,-42.20303636126705 L28.35370741821998,-42.23020549281851 " />
			<path d="M28.35370741821999,-42.23020549281851 L28.415447426414076,-42.268946843088415 L28.474442415676503,-42.311836439896176 L28.530457553590136,-42.358703559120755 L28.583269869180707,-42.409361643920136 L28.63266914046362,-42.46360904732989 L28.678458731242724,-42.52122983492872 L28.720456373830267,-42.58199464437589 L28.758494894572237,-42.645661598399144 L28.79242287929124,-42.71197726759895 L28.82210527599795,-42.78067767923648 L28.847423932472115,-42.85148936798995 L28.868278066573204,-42.92413046449656 L28.88458466740861,-42.99831181734719 L28.896278825762526,-43.07373814406762 L28.903313992470235,-43.15010920650474 L28.905662163709323,-43.22712100593906 " />
			<path d="M25.273623275690145,-44.95424488643995 L25.217776379332253,-44.85296171891153 L25.16612567311183,-44.7490988533653 L25.1187575727999,-44.64283006069935 L25.075751329024595,-44.534333137120726 L25.037178894678473,-44.423789606678 L25.00310480453557,-44.31138441755709 L24.973586067279555,-44.19730563264809 L24.948672070123628,-44.08174411490094 L24.92840449618175,-43.96489320799649 L24.912817254729468,-43.846948412866965 L24.90193642447097,-43.728107060607265 L24.895780209907315,-43.60856798232424 L24.89435891087886,-43.48853117647627 L24.89767490533278,-43.36819747425985 L24.905722645344607,-43.2477682036029 L24.91848866640031,-43.127444852327 L24.935951609923535,-43.00742873104212 L24.958082259010204,-42.8879206363378 L24.984843587310742,-42.769120514834455 L25.016190820978125,-42.65122712865654 L25.05207151357811,-42.53443772288766 L25.09242563383633,-42.41894769556373 L25.13718566607543,-42.304950270756365 L25.186276723174185,-42.192636175293565 L25.239616671859686,-42.08219331965842 L25.297116270122867,-41.973806483599816 L25.358679316527546,-41.867657006981105 L25.424202811163134,-41.76392248638399 L25.493577127971747,-41.6627764779752 L25.56668619816138,-41.564388207133135 L25.6434077043983,-41.46892228532019 L25.72361328545375,-41.376538434674664 L25.80716875096258,-41.28739122078275 L25.893934305934447,-41.20162979407798 L25.9837647846421,-41.11939764030054 L26.07650989349522,-41.04083234043418 L26.172014462493667,-40.96606534052217 L26.27011870483932,-40.89522173174754 L26.370658484272198,-40.828420041145506 L26.473465589683578,-40.76577203329825 L26.578368016546666,-40.7073825233438 L26.685190254693943,-40.65334920161194 L26.79375358195976,-40.603762470180385 L26.903876363196815,-40.55870529162495 L27.015374354166344,-40.51825305021646 L27.128061009793484,-40.4824734257968 L27.24174779627213,-40.45142628054519 L27.356244506497113,-40.4251635588239 L27.47135957829592,-40.40372920027117 L27.58690041492757,-40.38715906628673 L27.702673707312385,-40.37548088003273 L27.818485757453598,-40.36871418005073 L27.934142802509598,-40.36687028757211 L28.049451338974702,-40.36995228757676 L28.16421844642604,-40.37795502363167 L28.278252110294872,-40.39086510651805 L28.39136154312235,-40.40866093663254 L28.503357503762228,-40.43131274012513 L28.614052613996478,-40.45878261871315 L28.723261672034045,-40.491024613088165 L28.830801962368312,-40.52798477980955 L28.936493561474762,-40.569601281556224 L29.04015963883747,-40.61580449058542 L29.14162675280069,-40.66651710522547 " />
			<path d="M-17.014862657487463,-47.96345808803731 L25.273623275690127,-44.95424488644 " />
			<path d="M29.14162675280079,-40.66651710522545 L29.14162675280079,39.42877741481679 " />
			<path d="M-17.01486265748746,-47.96345808803725 L-16.949867527887694,-47.83531127206224 L-16.890650060732764,-47.70448811792632 L-16.837346175707687,-47.57128889922707 L-16.790078219268857,-47.43601934325614 L-16.7489546838267,-47.29898992927452 L-16.714069958727006,-47.160515175880896 L-16.685504113602526,-47.0209129191086 L-16.663322714592073,-46.88050358290821 L-16.647576673848967,-46.73960944369016 L-16.638302132684224,-46.59855389061553 L-16.635520378612735,-46.45766068333269 L-16.639237796492807,-46.31725320886369 L-16.64944585387124,-46.17765373934579 L-16.66612112056754,-46.039182692332105 L-16.68922532245237,-45.90215789534883 L-16.71870542929675,-45.766893856397424 L-16.754493776490406,-45.63370104207588 L-16.79650822034986,-45.50288516497608 L-16.84465232665984,-45.37474648199293 L-16.89881559201519,-45.24957910515565 L-16.9588736974553,-45.12767032656319 L-17.024688793808856,-45.009299958973244 L-17.09610981809401,-44.89473969355823 L-17.17297284024771,-44.78425247630248 L-17.255101439388362,-44.67809190447196 L-17.342307108748244,-44.576501644541764 L-17.434389688346172,-44.47971487291733 L-17.53113782440738,-44.3879537407332 L-17.632329454476125,-44.30142886395767 L-17.73773231710749,-44.22033883997359 L-17.847104484968582,-44.144869791745165 L-17.96019492012549,-44.07519494061665 " />
			<path d="M-17.9601949201255,-44.07519494061664 L-18.042311220334586,-44.02948753060511 L-18.12606460654399,-43.986813299916896 L-18.211358844450483,-43.947221282090126 L-18.298095929281658,-43.91075696913917 L-18.386176198405348,-43.87746225928342 L-18.47549844584398,-43.84737540880536 L-18.56596003856223,-43.82053098809343 L-18.657457034394447,-43.79695984191986 L-18.749884301476243,-43.77668905399948 L-18.843135639043098,-43.75974191586999 L-18.93710389945715,-43.746137900129476 L-19.03168111132195,-43.735892638062076 L-19.126758603543752,-43.72901790167726 L-19.22222713019675,-43.72552159018359 L-19.3179769960488,-43.725407720912386 L-19.41389818260345,-43.72867642470169 L-19.509880474513352,-43.73532394574597 L-19.6058135862199,-43.74534264591159 L-19.701587288673505,-43.75872101351321 L-19.797091535988983,-43.775443676540874 L-19.892216591890453,-43.79549142032285 L-19.98685315580049,-43.818841209603576 L-20.080892488428663,-43.8454662150117 L-20.17422653671515,-43.8753358438875 L-20.266748057985822,-43.908415775434506 L-20.358350743176228,-43.94466800015475 L-20.448929338982815,-43.98405086352243 L-20.538379768801047,-44.0265191138458 L-20.626599252311514,-44.07202395426228 L-20.713486423576548,-44.12051309880696 L-20.798941447511684,-44.17193083249028 L-20.882866134598157,-44.22621807531561 " />
			<path d="M29.141626752800715,39.428777414816814 L29.05770206571422,39.37449017199148 L28.972247041779084,39.32307243830816 L28.885359870514055,39.274583293763484 L28.797140387003587,39.229078453347014 L28.70768995718535,39.18661020302364 L28.61711136137877,39.14722733965596 L28.525508676188366,39.11097511493573 L28.432987154917694,39.077895183388726 L28.33965310663121,39.04802555451293 L28.245613774003036,39.02140054910481 L28.150977210093004,38.99805075982409 L28.055852154191538,38.978003016042116 L27.96034790687606,38.96128035301445 L27.864574204422457,38.94790198541284 L27.768641092715914,38.937883285247224 L27.672658800806012,38.931235764202945 L27.576737614251364,38.92796706041364 L27.480987748399315,38.92808092968485 L27.385519221746325,38.93157724117852 L27.290441729524524,38.93845197756334 L27.195864517659725,38.94869723963075 L27.101896257245677,38.96230125537126 L27.008644919678826,38.979248393500754 L26.916217652597034,38.999519181421135 L26.824720656764818,39.0230903275947 L26.73425906404657,39.04993474830664 L26.644936816607945,39.0800215987847 L26.556856547484255,39.11331630864045 L26.470119462653084,39.149780621591404 L26.384825224746596,39.189372639418174 L26.301071838537194,39.23204687010639 L26.21895553832812,39.27775428011792 " />
			<path d="M26.21895553832811,39.277754280117925 L26.105865103171194,39.34742913124644 L25.9964929353101,39.42289817947488 L25.89109007267874,39.50398820345895 L25.789898442609996,39.590513080234494 L25.693150306548787,39.68227421241862 L25.601067726950866,39.779060984043056 L25.513862057590984,39.880651243973254 L25.43173345845033,39.986811815803776 L25.354870436296636,40.09729903305953 L25.283449412011482,40.21185929847454 L25.21763431565793,40.33022966606449 L25.157576210217822,40.452138444656946 L25.103412944862473,40.577305821494235 L25.055268838552497,40.705444504477384 L25.013254394693043,40.83626038157718 L24.97746604749939,40.96945319589873 L24.947985940655013,41.104717234850135 L24.924881738770186,41.24174203183341 L24.908206472073886,41.380213078847106 L24.897998414695458,41.519812548364996 L24.89428099681539,41.660220022834004 L24.89706275088688,41.80111323011683 L24.906337292051628,41.94216878319147 L24.922083332794738,42.08306292240952 L24.94426473180519,42.22347225860992 L24.972830576929674,42.36307451538221 L25.00771530202937,42.50154926877583 L25.048838837471532,42.63857868275745 L25.096106793910362,42.77384823872838 L25.149410678935443,42.90704745742762 L25.208628146090376,43.03787061156355 L25.27362327569013,43.16601742753853 " />
			<path d="M-20.88286613459814,-44.22621807531563 L-20.88286613459814,35.86907644472687 " />
			<path d="M-17.014862657487463,40.15680422594129 L25.273623275690127,43.1660174275386 " />
			<path d="M-20.88286613459818,35.869076444726865 L-20.781399020634936,35.81836383008679 L-20.677732943272233,35.772160621057594 L-20.572041344165783,35.73054411931091 L-20.46450105383152,35.69358395258952 L-20.355291995793948,35.66134195821451 L-20.2445968855597,35.63387207962648 L-20.13260092491982,35.611220276133885 L-20.019491492092346,35.593424446019384 L-19.90545782822351,35.580514363133005 L-19.790690720772172,35.57251162707809 L-19.675382184307065,35.56942962707343 L-19.559725139251064,35.57127351955205 L-19.443913089109852,35.578040219534046 L-19.328139796725033,35.58971840578804 L-19.212598960093384,35.60628853977248 L-19.097483888294576,35.627722898325196 L-18.98298717806959,35.653985620046484 L-18.86930039159094,35.6850327652981 L-18.756613735963796,35.72081238971774 L-18.645115744994264,35.76126463112624 L-18.534992963757208,35.80632180968167 L-18.42642963649139,35.855908541113216 L-18.31960739834411,35.90994186284508 L-18.21470497148102,35.96833137279952 L-18.111897866069633,36.03097938064677 L-18.011358086636754,36.097781071248804 L-17.9132538442911,36.168624680023434 L-17.817749275292652,36.24339167993544 L-17.72500416643953,36.3219569798018 L-17.63517368773187,36.40418913357924 L-17.548408132759995,36.48995056028401 L-17.46485266725117,36.57909777417592 L-17.384647086195713,36.671481624821446 L-17.307925579958788,36.766947546634384 L-17.23481650976915,36.865335817476456 L-17.165442192960533,36.96648182588524 L-17.09991869832494,37.070216346482354 L-17.03835565192026,37.176365823101065 L-16.980856053657075,37.28475265915967 L-16.927516104971566,37.395195514794814 L-16.87842504787281,37.507509610257614 L-16.83366501563371,37.62150703506498 L-16.793310895375484,37.73699706238891 L-16.757430202775495,37.853786468157786 L-16.72608296910811,37.971679854335704 L-16.699321640807568,38.09047997583905 L-16.677190991720895,38.20998807054337 L-16.659728048197668,38.33000419182825 L-16.64696202714196,38.45032754310416 L-16.638914287130135,38.57075681376111 L-16.635598292676207,38.69109051597753 L-16.63701959170466,38.811127321825495 L-16.64317580626831,38.93066640010853 L-16.654056636526807,39.04950775236822 L-16.669643877979084,39.16745254749775 L-16.68991145192096,39.284303454402206 L-16.714825449076884,39.39986497214935 L-16.7443441863329,39.513943757058364 L-16.778418276475797,39.62634894617927 L-16.81699071082192,39.736892476621996 L-16.85999695459722,39.84538940020063 L-16.907365054909146,39.951658192866574 L-16.95901576112957,40.055521058412815 L-17.014862657487452,40.15680422594122 " />
			<path d="M-18.287255654591554,38.59759076855783 L-18.289873139794423,38.515924519477544 L-18.2977139814082,38.4342481140845 L-18.310743388980683,38.352923957235056 L-18.32890354997032,38.27231289083012 L-18.3521138862652,38.19277259273029 L-18.380271411714663,38.114655989710066 L-18.413251189087237,38.03830969149301 L-18.450906884427315,37.96407245281628 L-18.493071416350798,37.89227367034822 L-18.53955769739881,37.82323192112857 L-18.590159464159967,37.75725354901623 L-18.64465219247792,37.694631305416614 L-18.7027940936833,37.63564305031986 L-18.764327187429718,37.58055051941343 L-18.828978446373565,37.529598162739575 L-18.896461007618527,37.48301206005063 L-18.966475445549616,37.44099891767471 L-19.03871110040898,37.40374515134296 L-19.112847456718537,37.371416059047746 L-19.188555565433198,37.34415508760207 L-19.26549950351458,37.322083196154324 L-19.343337864448845,37.305298319482745 L-19.42172527309518,37.293874933450844 L-19.5003139181434,37.28786372455191 L-19.578755095381034,37.287291365008926 L-19.656700754922277,37.29216039442776 L-19.733805045533668,37.30244920852871 L-19.80972584920415,37.318112155006446 L-19.884126299150505,37.33907973609304 L-19.95667627452271,37.36525891692517 L-20.027053865176974,37.396533538347406 L-20.09494680001726,37.43276483231982 " />
			<path d="M-20.09494680001727,37.43276483231982 L-20.143203284022132,37.46253787612013 L-20.18983092444178,37.49484310629896 L-20.23471739120634,37.5296026967272 L-20.277754548885778,37.56673290850694 L-20.318838717197647,37.606144291705775 L-20.357870920781927,37.647741900849546 L-20.394757127641373,37.69142552365431 L-20.429408475672805,37.73708992244649 L-20.46174148674372,37.784625087689676 L-20.491678267798406,37.8339165030072 L-20.51914669850915,37.88484542106216 L-20.544080605020426,37.93728914963009 L-20.566419919367487,37.99112134717536 L-20.586110824185386,38.04621232721894 L-20.603105882359696,38.10242937076449 L-20.617364151306678,38.15963704603009 L-20.628851281607567,38.21769753471523 L-20.63753959975931,38.27647096401715 L-20.64340817484248,38.33581574359673 L-20.64644286894567,38.39558890668198 L-20.64663637122498,38.45564645448751 L-20.643988215516465,38.515843703120225 L-20.638504781459183,38.57603563213553 L-20.630199279126067,38.63607723390423 L-20.61909171719972,38.695823862948636 L-20.60520885476972,38.75513158440621 L-20.588584136867663,38.8138575207812 L-20.56925761389513,38.8718601961491 L-20.547275845138756,38.92899987698451 L-20.522691786604863,38.98513890879147 L-20.49556466344376,39.04014204772514 L-20.4659598272712,39.09387678640613 L-20.433948598730595,39.14621367314234 L-20.39960809567536,39.19702662378947 L-20.363021047385224,39.246193225498715 L-20.324275595264165,39.29359503162007 L-20.283465080500044,39.33911784705068 L-20.240687819197507,39.38265200334085 L-20.196046865525876,39.42409262289493 L-20.149649763452633,39.463339871630644 L-20.10160828766058,39.50029919948814 L-20.05203817427283,39.53488156820935 L-20.001058842034368,39.56700366583897 L-19.94879310462182,39.59658810743024 L-19.89536687477455,39.62356362147209 L-19.84090886095984,39.647865221588404 L-19.785550257302937,39.66943436309593 L-19.729424427528883,39.68821908404356 L-19.67266658367765,39.70417413039317 L-19.615413460366476,39.71726106504061 L-19.557802985384196,39.72744836041404 L-19.499973947411128,39.73471147442659 L-19.442065661664977,39.73903290960044 L-19.38421763427826,39.74040225521975 L-19.326569226215856,39.73881621241097 L-19.26925931754218,39.73427860209014 L-19.212425972846983,39.726800355757995 L-19.156206108635658,39.71639948916496 L-19.100735163485357,39.703101058909645 L-19.046146771761634,39.686937102075355 L-18.99257244168153,39.6679465590499 L-18.940141238498764,39.64617517971481 L-18.888979473574235,39.62167541322984 L-18.839210400080898,39.59450628167838 " />
			<path d="M-18.839210400080887,39.59450628167838 L-18.7774703918868,39.555764931408476 L-18.718475402624374,39.512875334600714 L-18.66246026471074,39.466008215376135 L-18.60964794912017,39.415350130576755 L-18.560248677837258,39.361102727167 L-18.514459087058153,39.30348193956817 L-18.47246144447061,39.242717130121 L-18.43442292372864,39.179050176097746 L-18.400494939009636,39.112734506897944 L-18.37081254230293,39.04403409526041 L-18.345493885828763,38.97322240650694 L-18.324639751727673,38.900581310000334 L-18.308333150892267,38.826399957149704 L-18.29663899253835,38.75097363042927 L-18.289603825830643,38.67460256799215 L-18.287255654591554,38.59759076855783 " />
			<path d="M28.905662163709323,41.955799230906926 L28.903044678506454,41.87413298182664 L28.895203836892676,41.792456576433594 L28.882174429320195,41.71113241958415 L28.864014268330557,41.63052135317922 L28.840803932035676,41.55098105507939 L28.812646406586214,41.47286445205916 L28.77966662921364,41.39651815384211 L28.742010933873562,41.32228091516538 L28.69984640195008,41.250482132697314 L28.653360120902068,41.181440383477664 L28.60275835414091,41.115462011365324 L28.548265625822957,41.05283976776571 L28.49012372461758,40.993851512668954 L28.42859063087116,40.938758981762525 L28.363939371927312,40.88780662508867 L28.29645681068235,40.84122052239973 L28.22644237275126,40.79920738002381 L28.154206717891896,40.76195361369206 L28.08007036158234,40.72962452139684 L28.00436225286768,40.702363549951166 L27.927418314786298,40.68029165850342 L27.849579953852032,40.66350678183184 L27.771192545205697,40.65208339579994 L27.692603900157476,40.64607218690101 L27.614162722919843,40.64549982735802 L27.5362170633786,40.65036885677686 L27.45911277276721,40.660657670877804 L27.38319196909673,40.67632061735554 L27.308791519150372,40.69728819844214 L27.236241543778167,40.72346737927427 L27.165863953123903,40.7547420006965 L27.097971018283616,40.790973294668916 " />
			<path d="M27.09797101828361,40.790973294668916 L27.049714534278746,40.82074633846923 L27.0030868938591,40.853051568648056 L26.95820042709454,40.8878111590763 L26.9151632694151,40.92494137085604 L26.87407910110323,40.96435275405487 L26.83504689751895,41.00595036319864 L26.798160690659504,41.04963398600341 L26.763509342628073,41.09529838479559 L26.731176331557158,41.14283355003877 L26.70123955050247,41.1921249653563 L26.673771119791727,41.24305388341126 L26.64883721328045,41.29549761197919 L26.62649789893339,41.349329809524455 L26.60680699411549,41.404420789568036 L26.58981193594118,41.46063783311359 L26.5755536669942,41.51784550837919 L26.56406653669331,41.575905997064325 L26.555378218541566,41.63467942636625 L26.549509643458396,41.69402420594583 L26.546474949355208,41.753797369031076 L26.5462814470759,41.813854916836604 L26.548929602784412,41.87405216546932 L26.554413036841694,41.934244094484626 L26.56271853917481,41.99428569625333 L26.573826101101158,42.05403232529773 L26.587708963531156,42.113340046755305 L26.604333681433214,42.172065983130295 L26.62366020440575,42.2300686584982 L26.64564197316212,42.28720833933361 L26.670226031696014,42.34334737114057 L26.69735315485712,42.39835051007424 L26.72695799102968,42.452085248755225 L26.758969219570282,42.50442213549144 L26.793309722625516,42.555235086138566 L26.829896770915653,42.60440168784781 L26.868642223036712,42.65180349396917 L26.909452737800834,42.69732630939978 L26.95222999910337,42.74086046568995 L26.996870952775,42.78230108524403 L27.043268054848244,42.82154833397974 L27.0913095306403,42.85850766183724 L27.140879644028047,42.89309003055845 L27.19185897626651,42.925212128188065 L27.244124713679057,42.95479656977934 L27.29755094352633,42.981772083821184 L27.352008957341038,43.0060736839375 L27.40736756099794,43.02764282544503 L27.463493390771994,43.04642754639266 L27.520251234623228,43.06238259274227 L27.5775043579344,43.07546952738971 L27.63511483291668,43.085656822763134 L27.69294387088975,43.09291993677569 L27.7508521566359,43.097241371949536 L27.808700184022616,43.098610717568846 L27.86634859208502,43.097024674760064 L27.923658500758698,43.09248706443924 L27.980491845453894,43.08500881810709 L28.03671170966522,43.074607951514054 L28.09218265481552,43.06130952125874 L28.146771046539243,43.04514556442445 L28.200345376619346,43.026155021399 L28.252776579802113,43.00438364206391 L28.303938344726642,42.979883875578935 L28.35370741821998,42.952714744027475 " />
			<path d="M28.35370741821999,42.952714744027475 L28.415447426414076,42.91397339375757 L28.474442415676503,42.87108379694981 L28.530457553590136,42.82421667772523 L28.583269869180707,42.77355859292585 L28.63266914046362,42.7193111895161 L28.678458731242724,42.66169040191727 L28.720456373830267,42.6009255924701 L28.758494894572237,42.53725863844684 L28.79242287929124,42.47094296924704 L28.82210527599795,42.402242557609505 L28.847423932472115,42.33143086885604 L28.868278066573204,42.25878977234943 L28.88458466740861,42.1846084194988 L28.896278825762526,42.10918209277837 L28.903313992470235,42.03281103034125 L28.905662163709323,41.955799230906926 " />
			<path d="M-17.63835303458995,47.18653600924249 L-22.357644816420038,46.85071516300758 " />
			<path d="M-22.35764481642004,46.85071516300758 L-21.366593542235723,46.27502228374773 " />
			<path d="M-21.366593542235723,46.27502228374773 L-16.647301760405636,46.61084312998264 " />
			<path d="M-16.647301760405632,46.61084312998264 L-17.63835303458995,47.18653600924249 " />
			<path d="M17.014862657487548,-40.15680422594134 L16.95901576112965,-40.05552105841293 L16.90736505490922,-39.95165819286669 L16.859996954597285,-39.84538940020075 L16.816990710821976,-39.73689247662212 L16.77841827647585,-39.62634894617939 L16.744344186332942,-39.513943757058485 L16.714825449076923,-39.39986497214948 L16.689911451920988,-39.28430345440233 L16.669643877979105,-39.167452547497874 L16.654056636526825,-39.04950775236835 L16.64317580626832,-38.930666400108656 L16.63701959170466,-38.81112732182562 L16.6355982926762,-38.69109051597765 L16.63891428713012,-38.57075681376123 L16.646962027141942,-38.45032754310428 L16.659728048197643,-38.33000419182837 L16.677190991720863,-38.20998807054348 L16.699321640807533,-38.09047997583917 L16.726082969108067,-37.97167985433582 L16.75743020277545,-37.85378646815789 L16.79331089537543,-37.736997062389015 L16.833665015633652,-37.62150703506508 L16.878425047872746,-37.50750961025771 L16.927516104971502,-37.39519551479491 L16.980856053657003,-37.284752659159764 L17.038355651920185,-37.17636582310115 L17.099918698324863,-37.07021634648244 L17.16544219296045,-36.96648182588532 L17.234816509769065,-36.86533581747653 L17.3079255799587,-36.766947546634455 L17.38464708619562,-36.67148162482151 L17.464852667251073,-36.57909777417598 L17.5484081327599,-36.489950560284065 L17.635173687731772,-36.40418913357929 L17.725004166439426,-36.32195697980185 L17.81774927529255,-36.243391679935485 L17.913253844290995,-36.16862468002347 L18.011358086636648,-36.09778107124884 L18.111897866069526,-36.0309793806468 L18.214704971480913,-35.96833137279954 L18.319607398344004,-35.9099418628451 L18.426429636491285,-35.85590854111323 L18.5349929637571,-35.80632180968168 L18.645115744994158,-35.761264631126245 L18.756613735963693,-35.72081238971774 L18.869300391590833,-35.68503276529809 L18.982987178069486,-35.65398562004648 L19.097483888294473,-35.62772289832518 L19.21259896009328,-35.60628853977246 L19.328139796724933,-35.58971840578802 L19.443913089109753,-35.578040219534024 L19.55972513925097,-35.57127351955202 L19.67538218430697,-35.569429627073404 L19.790690720772076,-35.57251162707806 L19.90545782822342,-35.58051436313297 L20.019491492092257,-35.59342444601934 L20.132600924919732,-35.61122027613384 L20.244596885559616,-35.633872079626435 L20.355291995793866,-35.66134195821446 L20.464501053831437,-35.69358395258947 L20.572041344165704,-35.730544119310856 L20.677732943272154,-35.77216062105754 L20.78139902063486,-35.81836383008673 L20.882866134598085,-35.869076444726794 " />
			<path d="M29.141626951011048,-40.6665172203641 L20.88286613459814,-35.869076444726815 " />
			<path d="M25.27362347390043,-44.95424500157857 L17.01486265748752,-40.156804225941286 " />
			<path d="M-20.15265613851565,-42.80161369980804 L17.014862657487576,-40.156804225941286 " />
			<path d="M20.88286613459814,-35.869076444726794 L20.88286613459814,42.377441201311385 " />
			<path d="M-17.63835303458995,47.18653600924249 L-17.63835303458995,46.54032075227331 " />
			<path d="M-29.14162675280079,46.63722905361538 L20.88286613459814,50.19693002370542 " />
			<path d="M-29.14162675280079,46.63722905361538 L-20.882866134598135,41.83978839311666 " />
			<path d="M20.88286613459814,50.19693002370543 L29.141626752800793,45.39948936320671 " />
			<path d="M21.88745525454724,49.968095131770525 L21.83079537911463,49.99958592138378 L21.772969579977033,50.02891087810407 L21.71404898108211,50.05603393313998 L21.65410605294743,50.08092172597119 L21.593214523523955,50.103543645380896 L21.531449287512945,50.123871867106644 L21.4688863142478,50.141881388063304 L21.405602554254102,50.15755005709611 L21.34167584460286,50.170858602225906 L21.277184813173317,50.18179065435306 L21.21220878194307,50.190332767390956 L21.146827669424507,50.196474434804294 L21.08112189236749,50.20020810253176 L21.015172266849238,50.20152917827732 L20.949059908873057,50.2004360371586 L20.882866134598146,50.19693002370543 " />
			<path d="M-31.029343465532826,44.544672663699664 L-22.77058284733017,39.74723200320095 " />
			<path d="M-31.029343465532826,44.544672663699664 L-31.02706962808011,44.640920164352245 L-31.02025359359556,44.737259405078674 L-31.008911782503255,44.83345829620971 L-30.99307151821954,44.92928508619061 L-30.97277096132853,45.02450891989086 L-30.948059017649882,45.11890039475446 L-30.918995220420438,45.212232113450746 L-30.885649586873406,45.30427923169449 L-30.84810244956073,45.39481999991545 L-30.806444262824947,45.483636297472565 L-30.76077538488672,45.57051415812562 L-30.71120583607313,45.65524428549871 L-30.657855033769046,45.737622557293506 L-30.600851504730194,45.81745051703776 L-30.540332575450954,45.89453585218437 L-30.47644404133279,45.96869285740906 L-30.409339815450362,46.03974288199088 L-30.339181557761464,46.107514760197354 L-30.266138285654005,46.17184522363777 L-30.19038596676832,46.23257929459101 L-30.112107095075736,46.289570659360486 L-30.03149025123457,46.3426820207566 L-29.94872964828284,46.39178542885775 L-29.864024663762027,46.43676258925287 L-29.77757935939913,46.477505148023035 L-29.689601989504062,46.51391495277554 L-29.60030449926682,46.54590428910161 L-29.509902014162908,46.5733960918881 L-29.418612321697275,46.59632413097411 L-29.3266553467351,46.61463317070521 L-29.23425262168355,46.62827910300101 L-29.141626752800807,46.63722905361538 " />
			<path d="M-31.029343465532826,-43.575589650278935 L-22.77058284733017,-48.37303031077765 " />
			<path d="M-31.029343465532826,-43.575589650278935 L-31.029343465532826,44.544672663699664 " />
			<path d="M-31.029343465532826,-43.575589650278935 L-31.025586391550288,-43.698808529373856 L-31.01433012481795,-43.82100222927325 L-30.995619471451683,-43.94168435202594 L-30.969528910115034,-44.060374516586954 L-30.93616229555329,-44.17660027099752 L-30.895652445194628,-44.28989897300306 L-30.848160610463893,-44.39981963162312 L-30.79387583491349,-44.5059247023428 L-30.733014201726334,-44.607791828780016 L-30.66581797358627,-44.70501552389549 L-30.592554628339705,-44.797208784053616 L-30.513515794287045,-44.88400462950922 L-30.429016089342124,-44.965057565188225 L-30.339391868680316,-45.04004495594756 L-30.244999885860434,-45.108668310839974 L-30.146215872749906,-45.1706544712718 " />
			<path d="M20.88286613459814,50.19693002370543 L20.847114861724403,50.21482865833324 L20.811468345850255,50.22693692283443 L20.77603103702037,50.2332193380398 L20.740906772269017,50.23365749545885 " />
			<path d="M-29.14162675280079,46.63722905361538 L-29.177378025674525,46.65512768824319 L-29.213024541548673,46.667235952744385 L-29.248461850378558,46.673518367949754 L-29.28358611512991,46.6739565253688 " />
			<path d="M-31.029343465532822,44.544672663699664 L-31.055469012071203,44.56093860747446 L-31.078205466774147,44.577413619836854 L-31.097512567215304,44.59406852631876 L-31.113356123776303,44.61087383388997 L-31.12570808019079,44.62779978318531 L-31.134546563227346,44.64481640120346 L-31.139855921423294,44.66189355438408 L-31.14162675280079,44.67900100196927 " />
			<path d="M-31.029343465532822,-43.575589650278935 L-31.055469012111253,-43.5593237064773 L-31.07820546684307,-43.54284869408744 L-31.097512567301738,-43.52619378757757 L-31.113356123868744,-43.50938847997804 L-31.125708080277633,-43.49246253065419 L-31.134546563296926,-43.475445912607476 L-31.13985592146392,-43.45836875939839 L-31.14162675280079,-43.44126131178498 " />
			<path d="M21.887455254547234,49.96809513177052 L30.146215872749888,45.1706544712718 " />
			<path d="M-30.14621587274989,-45.17065447127181 L-21.887455254547238,-49.968095131770525 " />
			<path d="M-17.960194920125456,-44.075194940616626 L-20.88286613459814,-42.37744120131139 " />
			<path d="M26.218955538328107,39.27775428011792 L20.15265613851565,42.80161369980804 " />
			<path d="M-29.28358611512992,46.673956525368794 L20.740906772269007,50.233657495458836 " />
			<path d="M21.88745524556423,49.96809513698867 L21.78243034328665,50.02497861223803 L21.674197154287064,50.075491349778574 L21.56314169114778,50.119453196438826 L21.449660032063502,50.156707362733876 L21.33415690823242,50.18712098205354 L21.21704426038645,50.210585584529746 L21.09873976960877,50.22701748389326 L20.97966536767839,50.23635807593993 L20.860245732254732,50.23857404754195 L20.74090677226901,50.23365749545884 " />
			<path d="M-29.283586115129918,46.673956525368794 L-29.40789242522362,46.6611974081255 L-29.53115931043048,46.64070036411086 L-29.65290557215272,46.6125454079113 L-29.772655947870906,46.57684244840803 L-29.88994296643265,46.53373085972429 L-30.00430877292602,46.48337893714868 L-30.115306916013942,46.42598324015863 L-30.222504090752253,46.36176782510849 L-30.325481830088084,46.29098337057769 L-30.42383813843528,46.213906198793495 L-30.51718906095001,46.130837196948114 L-30.60517018238044,46.04210064262137 L-30.68743804963945,45.94804293789394 L-30.763671512547077,45.84903125709288 L-30.833572977508798,45.745452113448295 L-30.89686956923563,45.63770985025643 L-30.953314195971075,45.52622506243927 L-31.002686514066543,45.411432954662565 L-31.044793788139803,45.29378164242144 L-31.07947164345869,45.17373040272596 L-31.10658470761296,45.05174788121527 L-31.126027138969395,44.92831026269932 L-31.137723039847195,44.8038994122698 L-31.14162675280079,44.67900099423692 " />
			<path d="M-31.14162675280079,-43.44126131178497 L-31.14162675280079,44.67900100219363 " />
			<path d="M-31.14162675280079,-43.44126130382827 L-31.137852590323437,-43.564071757623296 L-31.12654434621846,-43.68641870478181 L-31.10774469964197,-43.80784038798685 L-31.08152460352385,-43.9278785420184 L-31.047983016779828,-44.04608012332102 L-31.007246530824418,-44.161999019864034 L-30.959468891794273,-44.275197734841065 L-30.90483042028522,-44.38524903785425 L-30.84353733079294,-44.49173757735141 L-30.77582095342587,-44.594261448230476 L-30.701936860827654,-44.69243370869484 L-30.622163903604346,-44.785883840634796 L-30.53680315789678,-44.87425914802319 L-30.44617678907015,-44.9572260880478 L-30.350626835809425,-45.034471529956164 L-30.250513919209595,-45.10570393686216 L-30.146215881732903,-45.17065446605366 " />

       </g>
    </g>
    
</svg>
